<svg viewBox="0 0 48 48" fill="none" xmlns="http://www.w3.org/2000/svg"><path fill-rule="evenodd" clip-rule="evenodd" d="M19.493 38.821c0 .663.277 1.326.774 1.823l3.423 3.092c2.706 2.761 6.296 4.253 10.051 4.253s7.345-1.492 10.05-4.198c2.707-2.705 4.198-6.294 4.198-10.05 0-3.755-1.491-7.345-4.197-10.05l-3.259-3.26a2.598 2.598 0 00-1.822-.772c-.663 0-1.325.276-1.822.773a2.6 2.6 0 00-.773 1.822c0 .663.276 1.326.773 1.823l3.258 3.258c1.712 1.712 2.65 3.976 2.65 6.461 0 2.485-.938 4.75-2.65 6.462-1.712 1.711-3.976 2.65-6.461 2.65-2.43 0-4.75-.939-6.461-2.65l-3.259-3.26a2.6 2.6 0 00-1.822-.772 2.6 2.6 0 00-1.822.773c-.552.497-.829 1.104-.829 1.822z" fill="#F7931A"/><path fill-rule="evenodd" clip-rule="evenodd" d="M16.114 18.71c0 .662.276 1.325.773 1.822l10.99 10.934c1.049 1.05 2.65 1.05 3.644 0a2.532 2.532 0 000-3.59L20.532 16.943a2.599 2.599 0 00-1.822-.773c-.663 0-1.326.276-1.823.773a3.028 3.028 0 00-.773 1.768z" fill="#fff"/><path fill-rule="evenodd" clip-rule="evenodd" d="M24.442 11.575a2.6 2.6 0 001.823.773 2.6 2.6 0 001.822-.773 2.534 2.534 0 000-3.59l-3.259-3.258C22.123 1.967 18.533.531 14.778.531c-3.755 0-7.345 1.435-10.05 4.141C2.02 7.378.53 10.968.53 14.722c0 3.756 1.491 7.346 4.197 10.051l3.258 3.259c1.05 1.049 2.651 1.049 3.645 0 .497-.497.773-1.16.773-1.823 0-.662-.276-1.325-.773-1.822l-3.258-3.258c-1.712-1.712-2.65-3.976-2.65-6.461 0-2.485.938-4.75 2.65-6.461 1.712-1.712 3.977-2.651 6.462-2.651 2.429 0 4.748.939 6.46 2.65l3.148 3.37z" fill="#F7931A"/></svg>