<svg viewBox="0 0 80 80" fill="none" xmlns="http://www.w3.org/2000/svg"><path d="M78.803 49.676c-5.343 21.429-27.05 34.47-48.483 29.126C8.895 73.46-4.147 51.755 1.198 30.328 6.538 8.897 28.245-4.145 49.672 1.197c21.432 5.342 34.474 27.05 29.13 48.48z" fill="#F7931A"/><path fill-rule="evenodd" clip-rule="evenodd" d="M56.917 33.589c.797-5.24-3.256-8.058-8.797-9.937l1.797-7.1-4.388-1.076-1.75 6.912c-1.154-.283-2.339-.55-3.517-.815l1.763-6.958-4.386-1.076-1.799 7.096c-.955-.214-1.893-.426-2.803-.649l.005-.022-6.052-1.488-1.167 4.616s3.256.735 3.187.78c1.777.437 2.099 1.595 2.045 2.513l-2.047 8.088c.122.03.28.075.456.144l-.149-.037a34.07 34.07 0 00-.315-.077l-2.87 11.33c-.217.531-.769 1.329-2.011 1.026.044.063-3.19-.784-3.19-.784l-2.179 4.947 5.711 1.401c.638.158 1.268.32 1.892.48l1.237.316-1.816 7.18 4.383 1.077 1.8-7.104c1.197.32 2.36.615 3.497.893l-1.793 7.071 4.389 1.077 1.816-7.167c7.484 1.395 13.111.832 15.48-5.833 1.909-5.366-.095-8.461-4.032-10.48 2.867-.65 5.027-2.508 5.603-6.344zM46.89 47.434c-1.244 4.923-9.07 2.888-12.652 1.956-.322-.083-.61-.158-.855-.218l2.41-9.513c.299.074.664.154 1.078.246 3.704.818 11.294 2.495 10.019 7.529zM37.615 35.49c2.986.785 9.498 2.496 10.633-1.979 1.158-4.577-5.172-5.956-8.263-6.63a37.853 37.853 0 01-.905-.204l-2.185 8.628c.206.05.449.114.72.185z" fill="#fff"/></svg>