<svg viewBox="0 0 90 90" fill="none" xmlns="http://www.w3.org/2000/svg"><path fill-rule="evenodd" clip-rule="evenodd" d="M45 90c24.853 0 45-20.147 45-45S69.853 0 45 0 0 20.147 0 45s20.147 45 45 45z" fill="#F7931A"/><mask id="a" maskUnits="userSpaceOnUse" x="0" y="0" width="90" height="90"><path fill-rule="evenodd" clip-rule="evenodd" d="M45 90c24.853 0 45-20.147 45-45S69.853 0 45 0 0 20.147 0 45s20.147 45 45 45z" fill="#fff"/></mask><g mask="url(#a)" fill="#fff"><path d="M63.75 88.717V57.95l24.62 22.148-9.783.06 4.061 9.432-8.567 3.313-3.982-9.747-6.349 5.562z"/><path fill-rule="evenodd" clip-rule="evenodd" d="M63.724 62.73c-.782 0-1.39.108-1.822.324a39.21 39.21 0 01-6.642 2.754c-2.268.702-4.995 1.053-8.181 1.053-6.912 0-12.339-2.133-16.281-6.399-3.618-3.942-5.427-9.153-5.427-15.633 0-6.48 1.809-11.691 5.427-15.633 1.836-1.998 4.118-3.564 6.845-4.698 2.727-1.134 5.777-1.701 9.152-1.701 3.375 0 6.197.351 8.465 1.053a39.21 39.21 0 016.642 2.754c.432.216 1.04.324 1.822.324.783 0 1.459-.31 2.026-.931.567-.622.85-1.323.85-2.107 0-.782-.162-1.43-.486-1.944-.324-.513-1.255-1.188-2.795-2.024-1.538-.838-3.753-1.742-6.642-2.714-2.889-.972-6.331-1.458-10.327-1.458-8.262 0-15.012 2.592-20.25 7.776-5.4 5.292-8.1 12.393-8.1 21.303s2.7 16.011 8.1 21.303c2.538 2.538 5.535 4.468 8.991 5.791 3.456 1.323 7.195 1.985 11.218 1.985 4.024 0 7.48-.486 10.369-1.458a49.157 49.157 0 008.14-3.564c1.188-.594 1.782-1.62 1.782-3.078 0-.81-.283-1.526-.85-2.147-.567-.62-1.243-.931-2.026-.931zM52.998 30.038c-1.57-.528-3.41-.788-5.523-.788-4.419 0-8.08 1.406-10.916 4.213-2.923 2.865-4.384 6.707-4.384 11.451 0 4.745 1.46 8.587 4.388 11.456a13.807 13.807 0 004.88 3.142c1.86.712 3.866 1.067 6.012 1.067 2.126 0 3.973-.26 5.543-.788a25.702 25.702 0 004.256-1.864c.945-.471 1.471-1.38 1.471-2.523 0-.689-.249-1.316-.72-1.832-.492-.54-1.129-.832-1.843-.832-.551 0-1.019.083-1.414.28-1.04.546-2.083.979-3.15 1.31-1.018.314-2.271.476-3.758.476-3.157 0-5.568-.948-7.315-2.838-1.605-1.75-2.414-4.082-2.414-7.054 0-2.971.81-5.304 2.417-7.055.804-.876 1.81-1.566 3.025-2.071 1.222-.508 2.6-.764 4.145-.764 1.582 0 2.884.161 3.9.476 1.067.33 2.11.763 3.13 1.298.415.208.883.291 1.434.291.715 0 1.351-.293 1.843-.832.47-.514.72-1.134.72-1.812 0-.592-.133-1.123-.417-1.572-.299-.474-.875-.892-1.81-1.4-.837-.455-2-.93-3.5-1.435z"/></g><path d="M66 62.85v20.755l4.989-4.371 4.34 10.623 4.329-1.674-4.481-10.406 7.366-.045L66 62.85z" fill="#000"/></svg>