<svg viewBox="0 0 18 18" fill="none" xmlns="http://www.w3.org/2000/svg"><path fill-rule="evenodd" clip-rule="evenodd" d="M7.31 14.558c0 .248.104.497.29.684l1.284 1.16a5.251 5.251 0 003.769 1.594c1.408 0 2.754-.56 3.769-1.574a5.314 5.314 0 001.574-3.769c0-1.408-.56-2.754-1.574-3.769L15.2 7.662a.974.974 0 00-.683-.29.974.974 0 00-.684.29.975.975 0 00-.29.683c0 .249.104.497.29.684l1.222 1.222a3.38 3.38 0 01.994 2.423 3.38 3.38 0 01-.994 2.423 3.38 3.38 0 01-2.423.993 3.415 3.415 0 01-2.423-.993l-1.222-1.222a.975.975 0 00-.683-.29.975.975 0 00-.683.29.885.885 0 00-.311.683z" fill="#fff"/><path fill-rule="evenodd" clip-rule="evenodd" d="M6.043 7.016c0 .249.103.497.29.683l4.12 4.1c.394.394.995.394 1.367 0a.95.95 0 000-1.345l-4.12-4.1a.974.974 0 00-.684-.29.974.974 0 00-.683.29c-.166.186-.27.414-.29.662z" fill="#fff"/><path fill-rule="evenodd" clip-rule="evenodd" d="M9.166 4.34c.186.187.435.29.683.29a.975.975 0 00.684-.29.95.95 0 000-1.345L9.31 1.773A5.23 5.23 0 005.54.199a5.295 5.295 0 00-3.768 1.553 5.315 5.315 0 00-1.574 3.77c0 1.407.559 2.753 1.574 3.768l1.222 1.222c.393.393.994.393 1.366 0a.975.975 0 00.29-.683.974.974 0 00-.29-.684L3.14 7.923A3.38 3.38 0 012.146 5.5c0-.931.352-1.78.994-2.423a3.38 3.38 0 012.423-.994c.91 0 1.78.353 2.422.994l1.18 1.264z" fill="#fff"/></svg>