<svg viewBox="0 0 128 54" fill="none" xmlns="http://www.w3.org/2000/svg"><path fill-rule="evenodd" clip-rule="evenodd" d="M21.93 43.674c0 .745.31 1.491.87 2.05l3.852 3.48c3.044 3.105 7.082 4.783 11.307 4.783 4.224 0 8.262-1.678 11.307-4.722 3.044-3.043 4.721-7.081 4.721-11.306 0-4.225-1.677-8.263-4.721-11.307L45.6 22.986a2.923 2.923 0 00-2.05-.87c-.745 0-1.491.31-2.05.87-.56.56-.87 1.305-.87 2.05 0 .746.31 1.491.87 2.05l3.665 3.666c1.926 1.926 2.982 4.473 2.982 7.268 0 2.796-1.056 5.343-2.982 7.27-1.926 1.925-4.473 2.981-7.268 2.981-2.734 0-5.343-1.056-7.27-2.981l-3.665-3.666a2.925 2.925 0 00-2.05-.87c-.745 0-1.49.311-2.05.87-.621.56-.932 1.242-.932 2.05z" fill="#4285F4"/><path fill-rule="evenodd" clip-rule="evenodd" d="M18.128 21.048c0 .746.311 1.491.87 2.05L31.361 35.4c1.18 1.18 2.982 1.18 4.1 0a2.849 2.849 0 000-4.039L23.1 19.061a2.924 2.924 0 00-2.05-.87c-.746 0-1.492.31-2.05.87a3.406 3.406 0 00-.87 1.987z" fill="#4285F4"/><path fill-rule="evenodd" clip-rule="evenodd" d="M27.497 13.022c.56.56 1.305.87 2.051.87.745 0 1.49-.31 2.05-.87a2.85 2.85 0 000-4.038l-3.666-3.666C24.888 2.212 20.85.597 16.625.597c-4.225 0-8.263 1.615-11.307 4.66C2.274 8.3.597 12.338.597 16.562c0 4.225 1.677 8.263 4.721 11.307l3.666 3.666c1.18 1.18 2.982 1.18 4.1 0 .56-.56.87-1.305.87-2.05 0-.746-.31-1.492-.87-2.05L9.418 23.77c-1.925-1.926-2.98-4.473-2.98-7.269 0-2.796 1.055-5.343 2.98-7.269 1.926-1.926 4.474-2.982 7.27-2.982 2.733 0 5.342 1.056 7.268 2.982l3.541 3.79zM58.93 43.674c0 .745.31 1.491.87 2.05l3.852 3.48c3.044 3.105 7.082 4.783 11.307 4.783 4.224 0 8.262-1.678 11.307-4.722 3.044-3.043 4.721-7.081 4.721-11.306 0-4.225-1.677-8.263-4.721-11.307L82.6 22.986a2.923 2.923 0 00-2.05-.87c-.745 0-1.491.31-2.05.87-.56.56-.87 1.305-.87 2.05 0 .746.31 1.491.87 2.05l3.665 3.666c1.926 1.926 2.982 4.473 2.982 7.268 0 2.796-1.056 5.343-2.982 7.27-1.926 1.925-4.473 2.981-7.269 2.981-2.733 0-5.342-1.056-7.268-2.981l-3.666-3.666a2.925 2.925 0 00-2.05-.87c-.745 0-1.49.311-2.05.87-.621.56-.932 1.242-.932 2.05z" fill="#4285F4"/><path fill-rule="evenodd" clip-rule="evenodd" d="M55.129 21.048c0 .746.31 1.491.87 2.05L68.36 35.4c1.18 1.18 2.982 1.18 4.1 0a2.849 2.849 0 000-4.039L60.1 19.061a2.923 2.923 0 00-2.05-.87c-.746 0-1.492.31-2.05.87a3.407 3.407 0 00-.87 1.987z" fill="#F7931A"/><path fill-rule="evenodd" clip-rule="evenodd" d="M64.497 13.022c.56.56 1.305.87 2.051.87.745 0 1.49-.31 2.05-.87a2.85 2.85 0 000-4.038l-3.666-3.666C61.888 2.212 57.85.597 53.625.597c-4.224 0-8.263 1.615-11.307 4.66-3.044 3.043-4.721 7.082-4.721 11.306 0 4.225 1.677 8.263 4.721 11.307l3.666 3.666c1.18 1.18 2.982 1.18 4.1 0 .56-.56.87-1.305.87-2.05 0-.746-.31-1.492-.87-2.05l-3.666-3.666c-1.925-1.926-2.98-4.473-2.98-7.269 0-2.796 1.055-5.343 2.98-7.269 1.926-1.926 4.474-2.982 7.27-2.982 2.733 0 5.342 1.056 7.268 2.982l3.541 3.79zM95.93 43.674c0 .745.31 1.491.87 2.05l3.852 3.48c3.044 3.105 7.082 4.783 11.307 4.783 4.224 0 8.262-1.678 11.307-4.722 3.044-3.043 4.721-7.081 4.721-11.306 0-4.225-1.677-8.263-4.721-11.307l-3.666-3.666a2.923 2.923 0 00-2.05-.87c-.746 0-1.491.31-2.05.87a2.925 2.925 0 00-.87 2.05c0 .746.311 1.491.87 2.05l3.665 3.666c1.926 1.926 2.982 4.473 2.982 7.268 0 2.796-1.056 5.343-2.982 7.27-1.926 1.925-4.473 2.981-7.269 2.981-2.733 0-5.342-1.056-7.268-2.981l-3.666-3.666a2.925 2.925 0 00-2.05-.87c-.745 0-1.49.311-2.05.87-.621.56-.932 1.242-.932 2.05z" fill="#4285F4"/><path fill-rule="evenodd" clip-rule="evenodd" d="M92.129 21.048c0 .746.31 1.491.87 2.05L105.36 35.4c1.181 1.18 2.982 1.18 4.1 0a2.848 2.848 0 000-4.039l-12.362-12.3a2.923 2.923 0 00-2.05-.87c-.746 0-1.492.31-2.05.87a3.407 3.407 0 00-.87 1.987z" fill="#494949"/><path fill-rule="evenodd" clip-rule="evenodd" d="M101.497 13.022c.559.56 1.305.87 2.051.87.745 0 1.49-.31 2.05-.87a2.85 2.85 0 000-4.038l-3.666-3.666C98.888 2.212 94.85.597 90.625.597c-4.225 0-8.263 1.615-11.307 4.66-3.044 3.043-4.721 7.082-4.721 11.306 0 4.225 1.677 8.263 4.721 11.307l3.666 3.666c1.18 1.18 2.982 1.18 4.1 0 .56-.56.87-1.305.87-2.05 0-.746-.31-1.492-.87-2.05l-3.666-3.666c-1.925-1.926-2.98-4.473-2.98-7.269 0-2.796 1.055-5.343 2.98-7.269 1.926-1.926 4.474-2.982 7.27-2.982 2.733 0 5.342 1.056 7.268 2.982l3.541 3.79z" fill="#4285F4"/></svg>