<svg viewBox="0 0 60 60" fill="none" xmlns="http://www.w3.org/2000/svg"><path d="M25.742 39.396a5.15 5.15 0 100-10.301 5.15 5.15 0 000 10.301z" fill="#F7931A"/><path d="M59.968 9.262a.255.255 0 00-.242-.156l-7.631.15-1.363-1.363.15-7.63a.257.257 0 00-.44-.187l-7.51 7.51a.257.257 0 00-.076.178l-.122 6.214-18.63 18.628 3.277 3.278 18.63-18.63 6.213-.122a.259.259 0 00.177-.075l7.512-7.513a.257.257 0 00.055-.282z" fill="#F7931A"/><path d="M43.626 24.01a20.482 20.482 0 012.719 10.236 20.47 20.47 0 01-6.033 14.569 20.47 20.47 0 01-14.57 6.035 20.472 20.472 0 01-14.57-6.035c-8.032-8.034-8.032-21.105 0-29.139a20.475 20.475 0 0114.57-6.033c3.65 0 7.153.949 10.236 2.719l3.748-3.746a25.574 25.574 0 00-13.983-4.124c-6.879 0-13.346 2.679-18.21 7.542C-2.51 26.076-2.512 42.414 7.53 52.456c4.865 4.864 11.332 7.543 18.212 7.543 6.879 0 13.348-2.679 18.21-7.543 4.864-4.863 7.544-11.33 7.543-18.21 0-5.038-1.443-9.852-4.123-13.982l-3.746 3.746z" fill="#F7931A"/><path d="M36.179 31.457c.957 3.606.034 7.614-2.789 10.437a10.745 10.745 0 01-7.648 3.168c-2.89 0-5.605-1.126-7.65-3.168-4.216-4.217-4.216-11.08 0-15.297a10.752 10.752 0 0110.445-2.794l4.01-4.01a15.901 15.901 0 00-6.805-1.515 15.866 15.866 0 00-11.291 4.678 15.866 15.866 0 00-4.677 11.29c0 4.265 1.66 8.276 4.676 11.291a15.872 15.872 0 0011.292 4.678 15.86 15.86 0 0011.29-4.678c4.884-4.883 5.935-12.168 3.157-18.087l-4.01 4.008z" fill="#fff"/></svg>