<svg viewBox="0 0 53 58" fill="none" xmlns="http://www.w3.org/2000/svg"><path fill-rule="evenodd" clip-rule="evenodd" d="M30.333 33V15.264H38L26.5 0 15 15.264h7.667V33a13.465 13.465 0 013.833-.563c1.332 0 2.616.2 3.833.563z" fill="#4285F4"/><path fill-rule="evenodd" clip-rule="evenodd" d="M19 34.703l-6.648-8.77 6.142-4.625L0 16v19.19l6.21-4.628L13.364 40A13.526 13.526 0 0119 34.703zM34.506 21.308l6.142 4.625L34 34.703A13.526 13.526 0 0139.637 40l7.152-9.438L53 35.191V16l-18.494 5.308z" fill="#F7931A"/><path d="M26.5 39a8.501 8.501 0 010 17 8.501 8.501 0 010-17z" stroke="#494949" stroke-width="4"/><path fill-rule="evenodd" clip-rule="evenodd" d="M26.5 51a3.5 3.5 0 100-7 3.5 3.5 0 000 7z" fill="#4285F4"/></svg>