<svg viewBox="0 0 20 20" xmlns="http://www.w3.org/2000/svg"><path fill-rule="evenodd" clip-rule="evenodd" d="M5.74.077C2.62.077.09 2.64.09 5.798v8.386c0 3.16 2.53 5.721 5.651 5.721h8.384c3.12 0 5.652-2.562 5.652-5.72V5.797c0-3.16-2.53-5.72-5.652-5.72H5.74zM1.911 14.184V5.798c0-2.14 1.716-3.875 3.83-3.875h8.383c2.115 0 3.83 1.734 3.83 3.875v8.386c0 2.14-1.716 3.876-3.83 3.876H5.74c-2.115 0-3.829-1.735-3.829-3.876zm2.865-4.114c0 2.898 2.32 5.247 5.182 5.247 2.862 0 5.183-2.349 5.183-5.247 0-2.898-2.32-5.247-5.183-5.247-2.862 0-5.182 2.35-5.182 5.247zm8.542 0c0 1.879-1.504 3.402-3.36 3.402-1.855 0-3.359-1.523-3.359-3.402 0-1.878 1.504-3.401 3.36-3.401 1.855 0 3.359 1.523 3.359 3.401zm3.125-5.379c0 .7-.56 1.266-1.25 1.266s-1.25-.567-1.25-1.266c0-.699.56-1.265 1.25-1.265s1.25.566 1.25 1.265z"/></svg>