<svg viewBox="0 0 56 56" fill="none" xmlns="http://www.w3.org/2000/svg"><path d="M29.87 26L28 20.238 26.13 26h-6.047l4.891 3.547-1.87 5.757L28 31.746l4.896 3.558-1.87-5.757L35.917 26H29.87z" fill="#F7931A"/><path fill-rule="evenodd" clip-rule="evenodd" d="M54.742 24.748A9.998 9.998 0 0054 28a10 10 0 00.741 3.251 6.01 6.01 0 01.562 2.98 6.09 6.09 0 01-1.85 2.529 9.668 9.668 0 00-2.022 2.521 9.873 9.873 0 00-.731 3.2 6.07 6.07 0 01-.808 2.975 6.088 6.088 0 01-2.733 1.455 9.807 9.807 0 00-2.95 1.416 9.771 9.771 0 00-2.023 2.551 6.06 6.06 0 01-2.036 2.353 6.039 6.039 0 01-3.061.122 10.04 10.04 0 00-3.3 0 9.621 9.621 0 00-2.889 1.4A6.1 6.1 0 0128 56a6.1 6.1 0 01-2.901-1.246 9.628 9.628 0 00-2.888-1.4 6.23 6.23 0 00-1.381-.141c-.642.012-1.283.06-1.92.142a6.05 6.05 0 01-3.061-.122 6.075 6.075 0 01-2.036-2.353 9.763 9.763 0 00-2.023-2.55 9.78 9.78 0 00-2.949-1.418 6.064 6.064 0 01-2.733-1.455 6.068 6.068 0 01-.809-2.975 9.88 9.88 0 00-.73-3.2 9.69 9.69 0 00-2.022-2.52 6.092 6.092 0 01-1.851-2.53 6.01 6.01 0 01.562-2.98A10 10 0 002 28a10 10 0 00-.738-3.252 6.01 6.01 0 01-.562-2.98 6.089 6.089 0 011.847-2.53 9.669 9.669 0 002.022-2.521c.42-1.018.668-2.1.731-3.2a6.069 6.069 0 01.807-2.975A6.088 6.088 0 018.84 9.087a9.807 9.807 0 002.95-1.416 9.75 9.75 0 002.022-2.551 6.069 6.069 0 012.038-2.351 6.051 6.051 0 013.061-.122 9.933 9.933 0 003.3 0 9.621 9.621 0 002.889-1.4A6.1 6.1 0 0128 0a6.1 6.1 0 012.902 1.245 9.629 9.629 0 002.888 1.4 9.939 9.939 0 003.3 0 6.03 6.03 0 013.061.122 6.076 6.076 0 012.036 2.353 9.763 9.763 0 002.023 2.55 9.78 9.78 0 002.949 1.418 6.065 6.065 0 012.733 1.455c.521.905.8 1.93.809 2.975.063 1.1.31 2.181.73 3.2a9.69 9.69 0 002.022 2.52 6.091 6.091 0 011.851 2.53 6.01 6.01 0 01-.562 2.98zm-3.55-2.936c-.268-1.01-.602-2-1-2.965l-1.851.763c.365.885.672 1.792.919 2.717l1.932-.515zm-4.115-8.376a24.328 24.328 0 011.734 2.6l-1.733 1a22.335 22.335 0 00-1.59-2.387l1.589-1.213zm-2.057-2.357a24.375 24.375 0 00-2.343-2.07l-1.226 1.58a21.87 21.87 0 012.149 1.9l1.42-1.41zm-7.73-5.215c.963.405 1.898.873 2.8 1.4L39.081 8.99a22.16 22.16 0 00-2.562-1.279l.771-1.847zm-2.958-1.019a23.897 23.897 0 00-3.064-.624L31 6.2c.947.13 1.884.322 2.806.574l.526-1.929zM28 4h.143v2H28c-.912 0-1.823.056-2.728.166l-.243-1.984A24.413 24.413 0 0128 4zm-5.543 2.703l-.5-1.935a23.68 23.68 0 00-2.974.982l.753 1.853c.886-.36 1.795-.66 2.721-.9zm-6.289.413l.987 1.738c-.833.474-1.635 1-2.4 1.577l-1.2-1.6c.833-.627 1.706-1.2 2.613-1.715zm-3.583 5.187l-1.4-1.428A24.217 24.217 0 009.1 13.207l1.574 1.232a22.205 22.205 0 011.911-2.136zm-5.249 3.483l1.721 1.02a21.934 21.934 0 00-1.3 2.554l-1.839-.787c.412-.959.886-1.89 1.418-2.787zm-.526 6.276l-1.926-.539a24.126 24.126 0 00-.643 3.062l1.98.283c.135-.947.332-1.884.589-2.806zm-2.645 8.761C4.055 29.886 4 28.943 4 28v-.3l2 .022v.28c0 .864.05 1.728.151 2.586l-1.986.235zM4.73 33.9c.258 1.012.582 2.007.97 2.977l1.854-.739c-.354-.889-.65-1.8-.884-2.728l-1.94.49zm4.018 8.427a24.244 24.244 0 01-1.7-2.624l1.745-.976c.468.835.99 1.639 1.561 2.407l-1.606 1.193zm2.028 2.381c.727.75 1.501 1.45 2.318 2.1l1.243-1.568a22.042 22.042 0 01-2.125-1.925l-1.436 1.393zm7.666 5.31a23.987 23.987 0 01-2.779-1.431l1.03-1.715c.819.492 1.669.93 2.545 1.312l-.796 1.834zm2.944 1.058c1.003.286 2.024.508 3.056.662l.294-1.978a22.14 22.14 0 01-2.8-.608l-.55 1.924zM28 52h-.448l.041-2H28c.82 0 1.641-.045 2.457-.135l.218 1.989A24.85 24.85 0 0128 52zm5.277-2.642l.479 1.942v.005a23.81 23.81 0 002.983-.951l-.727-1.863c-.892.349-1.805.638-2.735.867zM28 47C17.507 47 9 38.493 9 28S17.507 9 28 9s19 8.507 19 19c-.012 10.489-8.511 18.988-19 19zm10.607.278l.966 1.752a24.342 24.342 0 002.635-1.685l-1.185-1.612a22.126 22.126 0 01-2.416 1.545zm5.995-1.948a24.263 24.263 0 002.113-2.304l-1.559-1.254c-.6.746-1.247 1.453-1.938 2.115l1.383 1.443-.001.001.002-.001zm2.198-5.902l1.711 1.04v.001a23.962 23.962 0 001.445-2.77l-1.829-.808c-.387.874-.83 1.721-1.327 2.537zm4.234-4.668l-1.919-.56c.268-.919.477-1.854.624-2.8l1.976.307a23.995 23.995 0 01-.681 3.054v-.001zm-1.041-6.215l2 .047v.001C52 28.4 52 28.2 52 28c0-1.043-.068-2.085-.202-3.12l-1.984.258a22.126 22.126 0 01.182 3.135c-.002.09-.003.181-.003.272z" fill="#F7931A"/><path fill-rule="evenodd" clip-rule="evenodd" d="M11 28c0-9.389 7.611-17 17-17 9.385.01 16.99 7.616 17 17 0 9.389-7.611 17-17 17s-17-7.611-17-17zm17 6.219l8.7 6.321-3.323-10.228L42.083 24H31.324L28 13.758 24.676 24H13.917l8.706 6.312L19.3 40.54l8.7-6.321z" fill="#fff"/></svg>