<svg viewBox="0 0 60 60" fill="none" xmlns="http://www.w3.org/2000/svg"><path d="M30 58c15.464 0 28-12.536 28-28S45.464 2 30 2 2 14.536 2 30s12.536 28 28 28z" fill="#fff" stroke="#000" stroke-width="4"/><rect x="13.5" y="43.5" width="3" height="33" rx="1.5" transform="rotate(-90 13.5 43.5)" fill="#000"/><rect x="13.5" y="31.5" width="3" height="33" rx="1.5" transform="rotate(-90 13.5 31.5)" fill="#4285F4"/><rect x="13.5" y="19.5" width="3" height="33" rx="1.5" transform="rotate(-90 13.5 19.5)" fill="#F7931A"/><rect x="24" y="49.5" width="15" height="6" rx="3" transform="rotate(-90 24 49.5)" fill="#000" stroke="#fff" stroke-width="3"/><rect x="34.5" y="37.5" width="15" height="6" rx="3" transform="rotate(-90 34.5 37.5)" fill="#4285F4" stroke="#fff" stroke-width="3"/><rect x="19.5" y="25.5" width="15" height="6" rx="3" transform="rotate(-90 19.5 25.5)" fill="#F7931A" stroke="#fff" stroke-width="3"/></svg>