<svg viewBox="0 0 61 36" fill="none" xmlns="http://www.w3.org/2000/svg"><path fill-rule="evenodd" clip-rule="evenodd" d="M14.46 28.796c0 .492.204.983.573 1.352l2.54 2.294c2.007 2.048 4.67 3.154 7.455 3.154s5.448-1.106 7.455-3.113c2.007-2.007 3.113-4.67 3.113-7.455 0-2.786-1.106-5.448-3.113-7.455l-2.417-2.417a1.927 1.927 0 00-1.352-.574c-.491 0-.983.205-1.351.574-.37.369-.574.86-.574 1.351 0 .492.205.983.573 1.352l2.417 2.417c1.27 1.27 1.966 2.95 1.966 4.793s-.696 3.522-1.966 4.793c-1.27 1.269-2.949 1.965-4.792 1.965a6.756 6.756 0 01-4.793-1.966l-2.417-2.417a1.929 1.929 0 00-1.351-.573c-.492 0-.983.205-1.352.573-.41.37-.615.82-.615 1.352z" fill="#fff"/><path fill-rule="evenodd" clip-rule="evenodd" d="M11.953 13.878c0 .492.205.983.573 1.352l8.152 8.11c.778.779 1.966.779 2.703 0a1.878 1.878 0 000-2.662l-8.151-8.11a1.928 1.928 0 00-1.352-.574c-.492 0-.983.205-1.352.573-.327.369-.532.82-.573 1.311z" fill="#000"/><path fill-rule="evenodd" clip-rule="evenodd" d="M18.13 8.586c.369.369.86.573 1.352.573.491 0 .983-.204 1.352-.573a1.88 1.88 0 000-2.663l-2.417-2.416C16.41 1.459 13.747.393 10.962.393c-2.786 0-5.448 1.066-7.455 3.073C1.498 5.473.393 8.136.393 10.92s1.106 5.448 3.114 7.455l2.416 2.417c.779.778 1.966.778 2.704 0 .368-.369.573-.86.573-1.352 0-.492-.205-.983-.573-1.352L6.21 15.672c-1.27-1.27-1.966-2.949-1.966-4.792S4.94 7.357 6.21 6.087s2.95-1.966 4.793-1.966c1.802 0 3.522.696 4.792 1.966l2.335 2.499zM38.855 28.796c0 .492.205.983.574 1.352l2.54 2.294c2.006 2.048 4.669 3.154 7.454 3.154 2.786 0 5.448-1.106 7.455-3.113 2.008-2.007 3.114-4.67 3.114-7.455 0-2.786-1.106-5.448-3.114-7.455l-2.416-2.417a1.927 1.927 0 00-1.352-.574c-.492 0-.983.205-1.352.574-.369.369-.573.86-.573 1.351 0 .492.204.983.573 1.352l2.417 2.417c1.27 1.27 1.966 2.95 1.966 4.793s-.696 3.522-1.966 4.793c-1.27 1.269-2.95 1.965-4.793 1.965a6.756 6.756 0 01-4.792-1.966l-2.417-2.417a1.929 1.929 0 00-1.352-.573c-.491 0-.983.205-1.352.573-.41.37-.614.82-.614 1.352z" fill="#4285F4"/><path fill-rule="evenodd" clip-rule="evenodd" d="M36.349 13.878c0 .492.204.983.573 1.352l8.151 8.11c.779.779 1.967.779 2.703 0a1.878 1.878 0 000-2.662l-8.15-8.11a1.928 1.928 0 00-1.352-.574c-.492 0-.983.205-1.352.573-.328.369-.533.82-.573 1.311z" fill="#000"/><path fill-rule="evenodd" clip-rule="evenodd" d="M42.526 8.586c.368.369.86.573 1.352.573.49 0 .983-.204 1.352-.573a1.88 1.88 0 000-2.663l-2.418-2.416C40.805 1.459 38.142.393 35.357.393S29.91 1.46 27.902 3.466c-2.007 2.007-3.113 4.67-3.113 7.455s1.106 5.448 3.113 7.455l2.417 2.417c.779.778 1.966.778 2.703 0 .369-.369.574-.86.574-1.352 0-.492-.205-.983-.574-1.352l-2.416-2.417c-1.27-1.27-1.966-2.949-1.966-4.792s.696-3.523 1.966-4.793 2.95-1.966 4.793-1.966c1.801 0 3.522.696 4.792 1.966l2.335 2.499z" fill="#fff"/></svg>