<svg viewBox="0 0 60 60" fill="none" xmlns="http://www.w3.org/2000/svg"><path d="M30 60c16.569 0 30-13.431 30-30C60 13.431 46.569 0 30 0 13.431 0 0 13.431 0 30c0 16.569 13.431 30 30 30z" fill="#4285F4"/><path d="M30 56C15.64 56 4 44.36 4 30S15.64 4 30 4s26 11.64 26 26-11.64 26-26 26z" fill="#fff"/><rect x="16.5" y="13.5" width="3" height="33" rx="1.5" fill="#494949"/><rect x="28.5" y="13.5" width="3" height="33" rx="1.5" fill="#4285F4"/><rect x="40.5" y="13.5" width="3" height="33" rx="1.5" fill="#F7931A"/><rect x="10.5" y="24" width="15" height="6" rx="3" fill="#494949" stroke="#fff" stroke-width="3"/><rect x="22.5" y="34.5" width="15" height="6" rx="3" fill="#4285F4" stroke="#fff" stroke-width="3"/><rect x="34.5" y="19.5" width="15" height="6" rx="3" fill="#F7931A" stroke="#fff" stroke-width="3"/></svg>