<svg viewBox="0 0 181 51" fill="none" xmlns="http://www.w3.org/2000/svg"><path d="M91.5 15.089a6.589 6.589 0 100-13.178 6.589 6.589 0 000 13.178zM69.5 17.089a6.589 6.589 0 100-13.178 6.589 6.589 0 000 13.178zM113.5 17.089a6.589 6.589 0 100-13.178 6.589 6.589 0 000 13.178z" fill="#494949" stroke="#fff" stroke-width="2.178"/><path d="M46.697 19.871c3.04 0 5.569-2.37 5.569-5.371 0-3.001-2.529-5.371-5.569-5.371s-5.568 2.37-5.568 5.371c0 3.001 2.529 5.371 5.568 5.371z" fill="#757575" stroke="#fff" stroke-width="1.742"/><path d="M155.211 19.058a3.307 3.307 0 10-.001-6.615 3.307 3.307 0 00.001 6.615zM25.75 19.058a3.307 3.307 0 100-6.615 3.307 3.307 0 000 6.615z" fill="#757575" stroke="#fff" stroke-width="1.115"/><path d="M34.5 19.697a4.197 4.197 0 100-8.394 4.197 4.197 0 000 8.394zM147.5 19.697a4.197 4.197 0 100-8.394 4.197 4.197 0 000 8.394z" fill="#757575" stroke="#fff" stroke-width="1.394"/><path d="M135.697 19.871c3.04 0 5.569-2.37 5.569-5.371 0-3.001-2.529-5.371-5.569-5.371-3.039 0-5.568 2.37-5.568 5.371 0 3.001 2.529 5.371 5.568 5.371z" fill="#757575" stroke="#fff" stroke-width="1.742"/><path d="M78.803 18.089c3.75 0 6.891-2.896 6.891-6.589 0-3.693-3.141-6.589-6.891-6.589S71.91 7.807 71.91 11.5c0 3.693 3.141 6.589 6.892 6.589zM103.803 18.089c3.75 0 6.891-2.896 6.891-6.589 0-3.693-3.141-6.589-6.891-6.589-3.751 0-6.892 2.896-6.892 6.589 0 3.693 3.141 6.589 6.892 6.589zM120.803 21.089c3.75 0 6.891-2.896 6.891-6.589 0-3.693-3.141-6.589-6.891-6.589-3.751 0-6.892 2.896-6.892 6.589 0 3.693 3.141 6.589 6.892 6.589z" fill="#494949" stroke="#fff" stroke-width="2.178"/><path d="M18.263 18.946a2.696 2.696 0 100-5.392 2.696 2.696 0 000 5.392zM162.25 18.946a2.696 2.696 0 100-5.392 2.696 2.696 0 000 5.392z" fill="#D6D6D6" stroke="#fff" stroke-width=".892"/><path d="M60.803 21.089c3.75 0 6.891-2.896 6.891-6.589 0-3.693-3.141-6.589-6.891-6.589S53.91 10.807 53.91 14.5c0 3.693 3.141 6.589 6.892 6.589z" fill="#494949" stroke="#fff" stroke-width="2.178"/><path d="M11.75 18.857a2.107 2.107 0 100-4.214 2.107 2.107 0 000 4.214z" fill="#D6D6D6" stroke="#fff" stroke-width=".714"/><path d="M7.9 19.285a1.785 1.785 0 100-3.57 1.785 1.785 0 000 3.57z" fill="#D6D6D6" stroke="#fff" stroke-width=".571"/><path d="M4.65 18.75a1.5 1.5 0 100-3 1.5 1.5 0 000 3z" fill="#D6D6D6" stroke="#fff" stroke-width=".5"/><path d="M2.768 19.75a1.5 1.5 0 100-3 1.5 1.5 0 000 3zM1.68 19.875c-.557 0-1.06.334-1.276.847a1.1 1.1 0 001.014 1.528h2.964a1.1 1.1 0 001.014-1.528 1.384 1.384 0 00-1.275-.847H1.679z" fill="#D6D6D6" stroke="#fff" stroke-width=".5"/><path d="M6.242 20.285a1.785 1.785 0 100-3.57 1.785 1.785 0 000 3.57zM4.935 20.465c-.662 0-1.26.397-1.517 1.007a1.306 1.306 0 001.204 1.813h3.556c.935 0 1.567-.952 1.204-1.813a1.647 1.647 0 00-1.517-1.007h-2.93z" fill="#D6D6D6" stroke="#fff" stroke-width=".571"/><path d="M10.316 20.857a2.107 2.107 0 100-4.214 2.107 2.107 0 000 4.214zM8.791 21.018c-.782 0-1.489.47-1.792 1.19a1.548 1.548 0 001.426 2.149h4.15A1.548 1.548 0 0014 22.208a1.945 1.945 0 00-1.792-1.19H8.79zM169.25 18.857a2.107 2.107 0 110-4.214 2.107 2.107 0 010 4.214z" fill="#D6D6D6" stroke="#fff" stroke-width=".714"/><path d="M173.1 19.285a1.785 1.785 0 110-3.57 1.785 1.785 0 010 3.57z" fill="#D6D6D6" stroke="#fff" stroke-width=".571"/><path d="M176.35 18.75a1.5 1.5 0 110-3 1.5 1.5 0 010 3z" fill="#D6D6D6" stroke="#fff" stroke-width=".5"/><path d="M178.232 19.75a1.5 1.5 0 110-3 1.5 1.5 0 010 3zM179.321 19.875c.556 0 1.059.334 1.275.847a1.1 1.1 0 01-1.014 1.528h-2.964a1.1 1.1 0 01-1.014-1.528 1.383 1.383 0 011.275-.847h2.442z" fill="#D6D6D6" stroke="#fff" stroke-width=".5"/><path d="M174.758 20.285a1.786 1.786 0 110-3.571 1.786 1.786 0 010 3.571zM176.065 20.465c.662 0 1.26.397 1.517 1.007a1.306 1.306 0 01-1.204 1.813h-3.556a1.306 1.306 0 01-1.204-1.813 1.646 1.646 0 011.517-1.007h2.93z" fill="#D6D6D6" stroke="#fff" stroke-width=".571"/><path d="M170.684 20.857a2.107 2.107 0 110-4.215 2.107 2.107 0 010 4.215zM172.209 21.018c.782 0 1.489.47 1.792 1.19a1.547 1.547 0 01-1.426 2.149h-4.15a1.547 1.547 0 01-1.426-2.149 1.944 1.944 0 011.792-1.19h3.418z" fill="#D6D6D6" stroke="#fff" stroke-width=".714"/><path d="M15.263 20.946a2.696 2.696 0 100-5.392 2.696 2.696 0 000 5.392zM13.303 21.179c-1 0-1.904.6-2.293 1.522a1.977 1.977 0 001.823 2.745h5.334a1.977 1.977 0 001.823-2.745 2.488 2.488 0 00-2.293-1.522h-4.394zM165.263 20.946a2.696 2.696 0 100-5.392 2.696 2.696 0 000 5.392zM163.303 21.179c-1.001 0-1.904.6-2.293 1.522a1.977 1.977 0 001.823 2.745h5.334a1.977 1.977 0 001.823-2.745 2.489 2.489 0 00-2.293-1.522h-4.394z" fill="#D6D6D6" stroke="#fff" stroke-width=".892"/><path d="M159.211 22.058a3.307 3.307 0 10-.001-6.615 3.307 3.307 0 00.001 6.615zM156.815 22.317a3.053 3.053 0 00-2.814 1.869 2.43 2.43 0 002.239 3.372h6.52a2.43 2.43 0 002.239-3.372 3.053 3.053 0 00-2.814-1.869h-5.37zM22.21 22.058a3.307 3.307 0 100-6.615 3.307 3.307 0 000 6.615zM19.815 22.317A3.053 3.053 0 0017 24.186a2.43 2.43 0 002.239 3.372h6.52A2.43 2.43 0 0028 24.186a3.053 3.053 0 00-2.814-1.869h-5.37z" fill="#757575" stroke="#fff" stroke-width="1.115"/><path d="M30.632 22.697a4.197 4.197 0 100-8.394 4.197 4.197 0 000 8.394zM27.582 23.053a3.873 3.873 0 00-3.569 2.37c-.854 2.03.636 4.274 2.838 4.274h8.298c2.202 0 3.692-2.244 2.838-4.274a3.873 3.873 0 00-3.57-2.37h-6.835zM151.632 22.697a4.197 4.197 0 10-.001-8.393 4.197 4.197 0 00.001 8.393zM148.583 23.053a3.873 3.873 0 00-3.57 2.37c-.854 2.03.636 4.274 2.838 4.274h8.298c2.202 0 3.692-2.244 2.838-4.274a3.873 3.873 0 00-3.57-2.37h-6.834z" fill="#757575" stroke="#fff" stroke-width="1.394"/><path d="M40.5 23.871c3.04 0 5.569-2.37 5.569-5.371 0-3.001-2.53-5.371-5.569-5.371-3.04 0-5.569 2.37-5.569 5.371 0 3.001 2.53 5.371 5.569 5.371zM36.552 24.379a4.943 4.943 0 00-4.593 3.116c-1.025 2.578.874 5.376 3.647 5.376h9.788c2.773 0 4.672-2.798 3.647-5.376a4.943 4.943 0 00-4.593-3.116h-7.896zM141.5 23.871c3.04 0 5.568-2.37 5.568-5.371 0-3.001-2.528-5.371-5.568-5.371-3.04 0-5.568 2.37-5.568 5.371 0 3.001 2.528 5.371 5.568 5.371zM137.552 24.379a4.942 4.942 0 00-4.593 3.116c-1.025 2.578.874 5.376 3.647 5.376h9.788c2.773 0 4.672-2.798 3.647-5.376a4.942 4.942 0 00-4.593-3.116h-7.896z" fill="#757575" stroke="#fff" stroke-width="1.742"/><path d="M53.5 25.089c3.75 0 6.892-2.896 6.892-6.589 0-3.693-3.142-6.589-6.892-6.589-3.75 0-6.892 2.896-6.892 6.589 0 3.693 3.142 6.589 6.892 6.589zM48.576 25.661a6.068 6.068 0 00-5.63 3.805c-1.275 3.17 1.059 6.623 4.475 6.623h12.158c3.416 0 5.75-3.453 4.476-6.622a6.068 6.068 0 00-5.63-3.806h-9.85zM128.5 25.089c3.75 0 6.892-2.896 6.892-6.589 0-3.693-3.142-6.589-6.892-6.589-3.75 0-6.892 2.896-6.892 6.589 0 3.693 3.142 6.589 6.892 6.589zM123.576 25.661a6.069 6.069 0 00-5.631 3.805c-1.274 3.17 1.06 6.623 4.476 6.623h12.158c3.416 0 5.75-3.453 4.476-6.622a6.069 6.069 0 00-5.631-3.806h-9.848z" fill="#494949" stroke="#fff" stroke-width="2.178"/><path d="M70 28.361c4.686 0 8.545-3.71 8.545-8.361 0-4.65-3.86-8.361-8.545-8.361-4.686 0-8.545 3.71-8.545 8.361 0 4.65 3.86 8.361 8.545 8.361zM64.058 29.139a7.69 7.69 0 00-7.162 4.89c-1.566 4.005 1.387 8.332 5.688 8.332h14.832c4.3 0 7.254-4.326 5.688-8.332a7.69 7.69 0 00-7.162-4.89H64.058zM112 28.361c4.686 0 8.545-3.71 8.545-8.361 0-4.65-3.859-8.361-8.545-8.361s-8.545 3.71-8.545 8.361c0 4.65 3.859 8.361 8.545 8.361zM106.058 29.139a7.691 7.691 0 00-7.162 4.89c-1.566 4.005 1.387 8.332 5.688 8.332h14.832c4.301 0 7.254-4.326 5.688-8.332a7.69 7.69 0 00-7.162-4.89h-11.884z" fill="#494949" stroke="#fff" stroke-width="2.722"/><path d="M91.5 30.75c5.98 0 10.868-4.791 10.868-10.75S97.481 9.25 91.5 9.25c-5.98 0-10.868 4.791-10.868 10.75S85.519 30.75 91.5 30.75z" fill="#F7931A" stroke="#fff" stroke-width="3.5"/><path d="M84.052 31.75a9.883 9.883 0 00-9.22 6.324c-1.984 5.143 1.81 10.676 7.323 10.676h18.69c5.512 0 9.308-5.533 7.323-10.676a9.883 9.883 0 00-9.22-6.324H84.052z" fill="#4285F4" stroke="#fff" stroke-width="3.5"/></svg>