<svg viewBox="0 0 61 59" fill="none" xmlns="http://www.w3.org/2000/svg"><path d="M8.371 47.5c5.407 7.039 13.763 11.25 22.812 11.25 8.992 0 17.301-4.158 22.714-11.123a2.5 2.5 0 00-3.948-3.068 23.701 23.701 0 01-18.766 9.191 23.702 23.702 0 01-18.847-9.296A2.5 2.5 0 008.371 47.5z" fill="#000"/><path fill-rule="evenodd" clip-rule="evenodd" d="M30.183 7.5a3.75 3.75 0 100-7.5 3.75 3.75 0 000 7.5z" fill="#F7931A"/><path fill-rule="evenodd" clip-rule="evenodd" d="M18.933 10.514a3.75 3.75 0 10-3.75-6.495 3.75 3.75 0 003.75 6.495z" fill="#4285F4"/><path fill-rule="evenodd" clip-rule="evenodd" d="M10.697 18.75A3.75 3.75 0 104.202 15a3.75 3.75 0 006.495 3.75z" fill="#F7931A"/><path fill-rule="evenodd" clip-rule="evenodd" d="M7.683 30a3.75 3.75 0 10-7.5 0 3.75 3.75 0 007.5 0zM45.183 4.02a3.75 3.75 0 10-3.75 6.494 3.75 3.75 0 003.75-6.495z" fill="#4285F4"/><path fill-rule="evenodd" clip-rule="evenodd" d="M27.103 26.866a4.5 4.5 0 106.364 6.364M43.013 17.32l-9.546 15.91-6.364-6.364 15.91-9.546z" fill="#000"/><path fill-rule="evenodd" clip-rule="evenodd" d="M30.183 32.25a2.25 2.25 0 100-4.5 2.25 2.25 0 000 4.5z" fill="#fff"/></svg>