<svg viewBox="0 0 46 48" fill="none" xmlns="http://www.w3.org/2000/svg"><path fill-rule="evenodd" clip-rule="evenodd" d="M9.031 44.15l-1.975-2.04 16.087-15.53.913.49a12.836 12.836 0 0015.022-2.112c5.1-4.938 5.231-13.105.294-18.206-4.939-5.101-13.106-5.235-18.207-.296l-1.975-2.04c6.226-6.027 16.195-5.864 22.221.36 6.03 6.227 5.866 16.195-.358 22.223a15.666 15.666 0 01-17.396 3.037L9.031 44.15z" fill="#F7931A"/><path fill-rule="evenodd" clip-rule="evenodd" d="M29.953 18.119a2.25 2.25 0 110-4.498 2.25 2.25 0 010 4.498zm7.988-9.983c-4.273-4.411-11.312-4.525-15.723-.254-3.09 2.992-4.064 7.34-2.904 11.194l-5.75 5.568-3.457-.986.875 3.484-2.305 2.232-3.455-.986.873 3.485-2.305 2.232-3.455-.987.873 3.486-1.207 1.17 2.198 6.979 20.849-20.184c4.306 3.424 10.58 3.217 14.639-.712 4.41-4.27 4.524-11.309.255-15.721z" fill="#000"/><path fill-rule="evenodd" clip-rule="evenodd" d="M5.224 47.864L3.26 45.836l2.886-2.794L8.11 45.07l-2.886 2.794z" fill="#4285F4"/></svg>