<svg viewBox="0 0 20 12" xmlns="http://www.w3.org/2000/svg"><path fill-rule="evenodd" clip-rule="evenodd" d="M9.785 11.95h1.196s.36-.042.546-.251c.17-.192.164-.551.164-.551s-.024-1.688.72-1.937c.734-.245 1.677 1.63 2.676 2.351.755.546 1.33.427 1.33.427l2.67-.039s1.397-.09.735-1.246c-.055-.095-.386-.855-1.986-2.417-1.675-1.635-1.45-1.37.567-4.198 1.229-1.722 1.72-2.774 1.566-3.224-.146-.43-1.05-.315-1.05-.315l-3.008.019s-.222-.032-.388.072c-.161.101-.265.34-.265.34s-.476 1.332-1.11 2.466c-1.34 2.39-1.875 2.517-2.094 2.369-.51-.347-.382-1.39-.382-2.132 0-2.318.334-3.284-.65-3.535-.328-.083-.568-.138-1.404-.146C8.545-.01 7.636.006 7.122.271c-.342.176-.606.569-.445.591.199.028.649.128.887.47.309.44.298 1.43.298 1.43s.177 2.729-.414 3.068c-.405.232-.961-.242-2.155-2.413a20.703 20.703 0 01-1.074-2.339s-.088-.23-.248-.353C3.78.576 3.51.53 3.51.53L.652.55S.223.562.065.758c-.14.175-.01.535-.01.535s2.236 5.505 4.77 8.28c2.323 2.543 4.96 2.377 4.96 2.377z"/></svg>