<svg viewBox="0 0 176 50" fill="none" xmlns="http://www.w3.org/2000/svg"><path fill-rule="evenodd" clip-rule="evenodd" d="M78.778 13.513c-1.17-.394-2.533-.586-4.098-.586-3.273 0-5.985 1.041-8.086 3.12-2.165 2.122-3.247 4.969-3.247 8.483 0 3.515 1.082 6.36 3.25 8.485a10.227 10.227 0 003.615 2.328c1.377.528 2.863.79 4.453.79 1.575 0 2.943-.192 4.106-.583a19.223 19.223 0 002.726-1.152l.562-.303c.615-.366.954-1.005.954-1.795 0-.51-.184-.975-.533-1.357a1.814 1.814 0 00-1.365-.616c-.408 0-.755.061-1.048.208-.77.404-1.542.724-2.333.969-.754.233-1.682.353-2.784.353-2.338 0-4.124-.702-5.418-2.102-1.189-1.296-1.789-3.024-1.789-5.225 0-2.201.6-3.929 1.791-5.226.596-.649 1.34-1.16 2.241-1.534.905-.377 1.926-.567 3.07-.567 1.172 0 2.136.12 2.889.353.79.245 1.564.565 2.319.962.307.154.654.215 1.062.215.53 0 1-.216 1.365-.616.348-.38.533-.84.533-1.342 0-.438-.098-.832-.308-1.165-.222-.35-.649-.66-1.342-1.037-.509-.277-1.18-.563-2.018-.864l-.567-.196zm21.562 1.42c-1.31-1.148-3.174-1.706-5.56-1.706H87.7c-.606 0-1.143.226-1.56.66-.41.426-.623.958-.623 1.553v18.21c0 .6.216 1.132.634 1.55.418.417.95.633 1.549.633h7.26c2.86 0 5.025-.59 6.477-1.816a5.387 5.387 0 001.59-2.195 6.998 6.998 0 00.476-2.552c0-.878-.126-1.65-.387-2.315-.506-1.19-1.357-2.135-2.536-2.84l-.24-.138c1.317-1.082 1.993-2.596 1.993-4.487 0-1.855-.67-3.395-1.993-4.556zm-5.62 11.48h-4.807v5.204h4.777c2.536 0 3.915-.555 4.304-1.535A2.72 2.72 0 0099.197 29c0-.918-.308-1.512-.946-1.895-.703-.422-1.783-.66-3.236-.689l-.295-.003zm-4.807-4.126v-4.844h4.657l.255.004c1.086.031 1.895.263 2.441.67.54.403.79.906.79 1.583 0 .392-.055.753-.167 1.087-.346.956-1.56 1.5-3.829 1.5h-4.147zM131.547 13.34c-.26.26-.39.59-.39.99V33.8c0 .38.13.7.39.96s.585.39.975.39.715-.13.975-.39.39-.58.39-.96V14.33c0-.4-.13-.73-.39-.99s-.585-.39-.975-.39-.715.13-.975.39zm-9.45 19.41a6.535 6.535 0 002.954-.706l.256-.134c.36-.2.68-.3.96-.3.28 0 .53.13.75.39.22.26.33.57.33.93 0 .36-.23.69-.69.99-1.42.92-3.02 1.38-4.8 1.38-2.22 0-4.09-.7-5.61-2.1-1.6-1.48-2.4-3.43-2.4-5.85 0-2.42.8-4.37 2.4-5.85 1.52-1.4 3.39-2.1 5.61-2.1 1.2 0 2.185.155 2.955.465.77.31 1.385.615 1.845.915.46.3.69.63.69.99s-.11.67-.33.93c-.22.26-.44.39-.66.39-.292 0-.591-.073-.897-.22l-.153-.08a6.576 6.576 0 00-3.21-.84c-1.76 0-3.12.495-4.08 1.485-.96.99-1.44 2.295-1.44 3.915s.48 2.925 1.44 3.915c.96.99 2.32 1.485 4.08 1.485zm-13.38-1.2c.46 0 .855.165 1.185.495.33.33.495.725.495 1.185v.18c0 .46-.165.855-.495 1.185-.33.33-.725.495-1.185.495h-.3c-.46 0-.855-.165-1.185-.495a1.617 1.617 0 01-.495-1.185v-.18c0-.46.165-.855.495-1.185.33-.33.725-.495 1.185-.495h.3zm30.27-10.62c0-.4.13-.73.39-.99s.585-.39.975-.39.715.13.975.39.39.59.39.99V33.8c0 .38-.13.7-.39.96s-.585.39-.975.39-.715-.13-.975-.39-.39-.58-.39-.96V20.93zm2.55-4.8c.3-.3.45-.66.45-1.08v-.12c0-.42-.15-.78-.45-1.08-.3-.3-.66-.45-1.08-.45h-.18c-.42 0-.78.15-1.08.45-.3.3-.45.66-.45 1.08v.12c0 .42.15.78.45 1.08.3.3.66.45 1.08.45h.18c.42 0 .78-.15 1.08-.45zm12.3 16.62a6.535 6.535 0 002.954-.706l.256-.134c.36-.2.68-.3.96-.3.28 0 .53.13.75.39.22.26.33.57.33.93 0 .36-.23.69-.69.99-1.42.92-3.02 1.38-4.8 1.38-2.22 0-4.09-.7-5.61-2.1-1.6-1.48-2.4-3.43-2.4-5.85 0-2.42.8-4.37 2.4-5.85 1.52-1.4 3.39-2.1 5.61-2.1 1.2 0 2.185.155 2.955.465.77.31 1.385.615 1.845.915.46.3.69.63.69.99s-.11.67-.33.93c-.22.26-.44.39-.66.39-.292 0-.591-.073-.897-.22l-.153-.08a6.576 6.576 0 00-3.21-.84c-1.76 0-3.12.495-4.08 1.485-.96.99-1.44 2.295-1.44 3.915s.48 2.925 1.44 3.915c.96.99 2.32 1.485 4.08 1.485zm21.81 1.17c0-.34-.1-.64-.3-.9l-5.43-7.2 4.32-3.87c.34-.34.51-.73.51-1.17 0-.2-.09-.445-.27-.735-.18-.29-.47-.435-.87-.435s-.76.13-1.08.39l-7.14 6.6V14.33c0-.38-.135-.705-.405-.975a1.329 1.329 0 00-.975-.405c-.38 0-.7.135-.96.405s-.39.595-.39.975V33.8c0 .38.13.7.39.96s.58.39.96.39.705-.13.975-.39.405-.58.405-.96v-3.87l2.61-2.37 5.16 7.02c.34.38.75.57 1.23.57.32 0 .61-.12.87-.36s.39-.53.39-.87z" fill="#000"/><path fill-rule="evenodd" clip-rule="evenodd" d="M25 50c13.807 0 25-11.193 25-25S38.807 0 25 0 0 11.193 0 25s11.193 25 25 25z" fill="#F7931A"/><mask id="a" maskUnits="userSpaceOnUse" x="0" y="0" width="50" height="50"><path fill-rule="evenodd" clip-rule="evenodd" d="M25 50c13.807 0 25-11.193 25-25S38.807 0 25 0 0 11.193 0 25s11.193 25 25 25z" fill="#fff"/></mask><g mask="url(#a)" fill="#fff"><path d="M35.417 49.287V32.194l13.677 12.304-5.435.033 2.257 5.24-4.76 1.841-2.212-5.415-3.527 3.09z"/><path fill-rule="evenodd" clip-rule="evenodd" d="M35.403 34.85c-.435 0-.773.06-1.013.18-1.2.63-2.43 1.14-3.69 1.53-1.26.39-2.775.585-4.545.585-3.84 0-6.855-1.185-9.045-3.555-2.01-2.19-3.015-5.085-3.015-8.685 0-3.6 1.005-6.495 3.015-8.685 1.02-1.11 2.288-1.98 3.803-2.61 1.514-.63 3.21-.945 5.084-.945 1.875 0 3.443.195 4.703.585 1.26.39 2.49.9 3.69 1.53.24.12.578.18 1.013.18.434 0 .81-.173 1.125-.518.315-.345.472-.735.472-1.17 0-.434-.09-.795-.27-1.08-.18-.284-.697-.66-1.552-1.124-.855-.466-2.085-.968-3.69-1.508s-3.518-.81-5.738-.81c-4.59 0-8.34 1.44-11.25 4.32-3 2.94-4.5 6.885-4.5 11.835 0 4.95 1.5 8.895 4.5 11.835 1.41 1.41 3.075 2.482 4.995 3.218 1.92.735 3.997 1.102 6.232 1.102 2.235 0 4.155-.27 5.76-.81a27.31 27.31 0 004.523-1.98c.66-.33.99-.9.99-1.71 0-.45-.157-.848-.472-1.193-.316-.344-.69-.517-1.125-.517zm-5.96-18.162c-.872-.294-1.894-.438-3.068-.438-2.455 0-4.489.781-6.065 2.34-1.623 1.592-2.435 3.727-2.435 6.363 0 2.635.812 4.77 2.438 6.363a7.67 7.67 0 002.711 1.746c1.033.396 2.147.593 3.34.593 1.181 0 2.207-.144 3.08-.438a14.282 14.282 0 002.364-1.035c.525-.262.817-.767.817-1.402 0-.383-.138-.731-.4-1.018a1.36 1.36 0 00-1.024-.462c-.306 0-.566.046-.785.156-.578.303-1.158.543-1.75.727-.566.175-1.262.265-2.088.265-1.754 0-3.094-.527-4.064-1.577-.892-.972-1.341-2.268-1.341-3.918 0-1.651.45-2.947 1.343-3.92a4.683 4.683 0 011.68-1.15c.679-.283 1.445-.425 2.303-.425.879 0 1.602.09 2.166.264.593.184 1.173.424 1.74.721.23.116.49.162.796.162.397 0 .75-.163 1.024-.462.261-.286.4-.63.4-1.007 0-.329-.074-.624-.232-.873-.166-.264-.486-.496-1.006-.778-.464-.253-1.11-.517-1.944-.797z"/></g><path d="M36.667 34.916v11.531l2.771-2.428 2.411 5.901 2.405-.93-2.489-5.78 4.093-.025-9.191-8.269z" fill="#000"/></svg>