<svg width="141" height="42" viewBox="0 0 141 42" fill="none" xmlns="http://www.w3.org/2000/svg">
<path fill-rule="evenodd" clip-rule="evenodd" d="M63.0225 10.8101C62.0868 10.4953 60.9961 10.3413 59.744 10.3413C57.1256 10.3413 54.9561 11.1744 53.275 12.8381C51.543 14.5355 50.6773 16.8123 50.6773 19.624C50.6773 22.4356 51.543 24.7125 53.2774 26.4121C54.0913 27.2261 55.0589 27.8494 56.1696 28.2746C57.2714 28.6964 58.4602 28.9066 59.732 28.9066C60.992 28.9066 62.0867 28.7527 63.0166 28.4398C63.7825 28.1821 64.5097 27.8748 65.1979 27.5179L65.6474 27.276C66.1391 26.9834 66.4106 26.4723 66.4106 25.84C66.4106 25.4319 66.2633 25.0601 65.9843 24.7545C65.6925 24.4348 65.3152 24.2613 64.892 24.2613C64.5653 24.2613 64.288 24.3106 64.0538 24.4277C63.4379 24.7509 62.8197 25.0073 62.1869 25.2031C61.584 25.3897 60.8413 25.4853 59.96 25.4853C58.0896 25.4853 56.6607 24.9237 55.6256 23.8035C54.6745 22.7673 54.1946 21.385 54.1946 19.624C54.1946 17.863 54.6745 16.4807 55.6271 15.4428C56.1039 14.9239 56.6994 14.5152 57.42 14.2155C58.1439 13.9145 58.961 13.7626 59.876 13.7626C60.8138 13.7626 61.5852 13.8586 62.1869 14.0448C62.8197 14.2407 63.4379 14.4971 64.0421 14.8142C64.288 14.9373 64.5653 14.9866 64.892 14.9866C65.3152 14.9866 65.6925 14.8131 65.9843 14.4935C66.2623 14.189 66.4106 13.8217 66.4106 13.42C66.4106 13.0692 66.332 12.7545 66.1636 12.488C65.9863 12.2073 65.6449 11.9598 65.0905 11.6583C64.6832 11.4368 64.1464 11.2078 63.476 10.9675L63.0225 10.8101ZM80.2716 11.9468C79.2237 11.0276 77.733 10.5813 75.824 10.5813H70.16C69.6755 10.5813 69.2459 10.7625 68.9118 11.1095C68.5837 11.4503 68.4133 11.8762 68.4133 12.352V26.92C68.4133 27.3992 68.5864 27.8252 68.9206 28.1594C69.2548 28.4936 69.6808 28.6666 70.16 28.6666H75.968C78.2554 28.6666 79.9875 28.1942 81.1499 27.2135C81.7293 26.7276 82.1562 26.1394 82.4213 25.4576C82.6753 24.8044 82.8026 24.1224 82.8026 23.416C82.8026 22.7133 82.7012 22.0956 82.4925 21.5642C82.0883 20.612 81.4071 19.8557 80.4638 19.2917L80.2717 19.1815C81.3254 18.3162 81.8666 17.1047 81.8666 15.592C81.8666 14.1075 81.3307 12.8759 80.2716 11.9468ZM75.776 21.1306H71.9306V25.2933H75.752C77.7809 25.2933 78.8835 24.8496 79.1952 24.0654C79.3024 23.8153 79.3573 23.5285 79.3573 23.2C79.3573 22.4653 79.1114 21.9899 78.601 21.6836C78.0383 21.346 77.1743 21.1554 76.0123 21.1329L75.776 21.1306ZM71.9306 17.8293V13.9546H75.656L75.8602 13.9575C76.7284 13.9823 77.3758 14.1676 77.8131 14.4942C78.2444 14.8162 78.4453 15.218 78.4453 15.76C78.4453 16.0737 78.4004 16.3626 78.3115 16.6292C78.0341 17.3942 77.0629 17.8293 75.248 17.8293H71.9306Z" fill="white"/>
<path fill-rule="evenodd" clip-rule="evenodd" d="M105.237 10.6721C105.029 10.8801 104.925 11.1441 104.925 11.4641V27.0401C104.925 27.3441 105.029 27.6001 105.237 27.8081C105.445 28.0161 105.705 28.1201 106.017 28.1201C106.329 28.1201 106.589 28.0161 106.797 27.8081C107.005 27.6001 107.109 27.3441 107.109 27.0401V11.4641C107.109 11.1441 107.005 10.8801 106.797 10.6721C106.589 10.4641 106.329 10.3601 106.017 10.3601C105.705 10.3601 105.445 10.4641 105.237 10.6721ZM97.6773 26.2001C98.4987 26.2001 99.2864 26.0119 100.041 25.6354L100.245 25.5281C100.533 25.3681 100.789 25.2881 101.013 25.2881C101.237 25.2881 101.437 25.3921 101.613 25.6001C101.789 25.8081 101.877 26.0561 101.877 26.3441C101.877 26.6321 101.693 26.8961 101.325 27.1361C100.189 27.8721 98.9094 28.2401 97.4853 28.2401C95.7093 28.2401 94.2133 27.6801 92.9973 26.5601C91.7173 25.3761 91.0773 23.8161 91.0773 21.8801C91.0773 19.9441 91.7173 18.3841 92.9973 17.2001C94.2133 16.0801 95.7093 15.5201 97.4853 15.5201C98.4453 15.5201 99.2333 15.6441 99.8493 15.8921C100.465 16.1401 100.957 16.3841 101.325 16.6241C101.693 16.8641 101.877 17.1281 101.877 17.4161C101.877 17.7041 101.789 17.9521 101.613 18.1601C101.437 18.3681 101.261 18.4721 101.085 18.4721C100.852 18.4721 100.613 18.4133 100.368 18.2958L100.245 18.2321C99.4293 17.7841 98.5733 17.5601 97.6773 17.5601C96.2693 17.5601 95.1813 17.9561 94.4133 18.7481C93.6453 19.5401 93.2613 20.5841 93.2613 21.8801C93.2613 23.1761 93.6453 24.2201 94.4133 25.0121C95.1813 25.8041 96.2693 26.2001 97.6773 26.2001ZM86.9733 25.2401C87.3413 25.2401 87.6573 25.3721 87.9213 25.6361C88.1853 25.9001 88.3173 26.2161 88.3173 26.5841V26.7281C88.3173 27.0961 88.1853 27.4121 87.9213 27.6761C87.6573 27.9401 87.3413 28.0721 86.9733 28.0721H86.7333C86.3653 28.0721 86.0493 27.9401 85.7853 27.6761C85.5213 27.4121 85.3893 27.0961 85.3893 26.7281V26.5841C85.3893 26.2161 85.5213 25.9001 85.7853 25.6361C86.0493 25.3721 86.3653 25.2401 86.7333 25.2401H86.9733ZM111.189 16.7441C111.189 16.4241 111.293 16.1601 111.501 15.9521C111.709 15.7441 111.969 15.6401 112.281 15.6401C112.593 15.6401 112.853 15.7441 113.061 15.9521C113.269 16.1601 113.373 16.4241 113.373 16.7441V27.0401C113.373 27.3441 113.269 27.6001 113.061 27.8081C112.853 28.0161 112.593 28.1201 112.281 28.1201C111.969 28.1201 111.709 28.0161 111.501 27.8081C111.293 27.6001 111.189 27.3441 111.189 27.0401V16.7441ZM113.229 12.9041C113.469 12.6641 113.589 12.3761 113.589 12.0401V11.9441C113.589 11.6081 113.469 11.3201 113.229 11.0801C112.989 10.8401 112.701 10.7201 112.365 10.7201H112.221C111.885 10.7201 111.597 10.8401 111.357 11.0801C111.117 11.3201 110.997 11.6081 110.997 11.9441V12.0401C110.997 12.3761 111.117 12.6641 111.357 12.9041C111.597 13.1441 111.885 13.2641 112.221 13.2641H112.365C112.701 13.2641 112.989 13.1441 113.229 12.9041ZM123.069 26.2001C123.891 26.2001 124.678 26.0119 125.433 25.6354L125.637 25.5281C125.925 25.3681 126.181 25.2881 126.405 25.2881C126.629 25.2881 126.829 25.3921 127.005 25.6001C127.181 25.8081 127.269 26.0561 127.269 26.3441C127.269 26.6321 127.085 26.8961 126.717 27.1361C125.581 27.8721 124.301 28.2401 122.877 28.2401C121.101 28.2401 119.605 27.6801 118.389 26.5601C117.109 25.3761 116.469 23.8161 116.469 21.8801C116.469 19.9441 117.109 18.3841 118.389 17.2001C119.605 16.0801 121.101 15.5201 122.877 15.5201C123.837 15.5201 124.625 15.6441 125.241 15.8921C125.857 16.1401 126.349 16.3841 126.717 16.6241C127.085 16.8641 127.269 17.1281 127.269 17.4161C127.269 17.7041 127.181 17.9521 127.005 18.1601C126.829 18.3681 126.653 18.4721 126.477 18.4721C126.244 18.4721 126.005 18.4133 125.76 18.2958L125.637 18.2321C124.821 17.7841 123.965 17.5601 123.069 17.5601C121.661 17.5601 120.573 17.9561 119.805 18.7481C119.037 19.5401 118.653 20.5841 118.653 21.8801C118.653 23.1761 119.037 24.2201 119.805 25.0121C120.573 25.8041 121.661 26.2001 123.069 26.2001ZM140.517 27.1361C140.517 26.8641 140.437 26.6241 140.277 26.4161L135.933 20.6561L139.389 17.5601C139.661 17.2881 139.797 16.9761 139.797 16.6241C139.797 16.4641 139.725 16.2681 139.581 16.0361C139.437 15.8041 139.205 15.6881 138.885 15.6881C138.565 15.6881 138.277 15.7921 138.021 16.0001L132.309 21.2801V11.4641C132.309 11.1601 132.201 10.9001 131.985 10.6841C131.769 10.4681 131.509 10.3601 131.205 10.3601C130.901 10.3601 130.645 10.4681 130.437 10.6841C130.229 10.9001 130.125 11.1601 130.125 11.4641V27.0401C130.125 27.3441 130.229 27.6001 130.437 27.8081C130.645 28.0161 130.901 28.1201 131.205 28.1201C131.509 28.1201 131.769 28.0161 131.985 27.8081C132.201 27.6001 132.309 27.3441 132.309 27.0401V23.9441L134.397 22.0481L138.525 27.6641C138.797 27.9681 139.125 28.1201 139.509 28.1201C139.765 28.1201 139.997 28.0241 140.205 27.8321C140.413 27.6401 140.517 27.4081 140.517 27.1361Z" fill="white"/>
<path fill-rule="evenodd" clip-rule="evenodd" d="M28.3333 38.1865C25.7965 39.3509 22.974 40 20 40C8.9543 40 0 31.0457 0 20C0 8.9543 8.9543 0 20 0C31.0457 0 40 8.9543 40 20C40 24.6774 38.3944 28.9797 35.7042 32.3859L28.3333 25.7549V38.1865Z" fill="#F7931A"/>
<mask id="mask0" mask-type="alpha" maskUnits="userSpaceOnUse" x="0" y="0" width="40" height="40">
<path fill-rule="evenodd" clip-rule="evenodd" d="M28.3333 38.1865C25.7965 39.3509 22.974 40 20 40C8.9543 40 0 31.0457 0 20C0 8.9543 8.9543 0 20 0C31.0457 0 40 8.9543 40 20C40 24.6774 38.3944 28.9797 35.7042 32.3859L28.3333 25.7549V38.1865Z" fill="white"/>
</mask>
<g mask="url(#mask0)">
<path fill-rule="evenodd" clip-rule="evenodd" d="M20 40C31.0457 40 40 31.0457 40 20C40 8.9543 31.0457 0 20 0C8.9543 0 0 8.9543 0 20C0 31.0457 8.9543 40 20 40Z" fill="#F7931A"/>
<mask id="mask1" mask-type="alpha" maskUnits="userSpaceOnUse" x="0" y="0" width="40" height="40">
<path fill-rule="evenodd" clip-rule="evenodd" d="M20 40C31.0457 40 40 31.0457 40 20C40 8.9543 31.0457 0 20 0C8.9543 0 0 8.9543 0 20C0 31.0457 8.9543 40 20 40Z" fill="white"/>
</mask>
<g mask="url(#mask1)">
<path fill-rule="evenodd" clip-rule="evenodd" d="M28.322 27.88C27.974 27.88 27.704 27.928 27.512 28.024C26.552 28.528 25.568 28.936 24.56 29.248C23.552 29.56 22.34 29.716 20.924 29.716C17.852 29.716 15.44 28.768 13.688 26.872C12.08 25.12 11.276 22.804 11.276 19.924C11.276 17.044 12.08 14.728 13.688 12.976C14.504 12.088 15.518 11.392 16.73 10.888C17.942 10.384 19.298 10.132 20.798 10.132C22.298 10.132 23.552 10.288 24.56 10.6C25.568 10.912 26.552 11.32 27.512 11.824C27.704 11.92 27.974 11.968 28.322 11.968C28.67 11.968 28.97 11.83 29.222 11.554C29.474 11.278 29.6 10.966 29.6 10.618C29.6 10.27 29.528 9.982 29.384 9.754C29.24 9.526 28.826 9.226 28.142 8.854C27.458 8.482 26.474 8.08 25.19 7.648C23.906 7.216 22.376 7 20.6 7C16.928 7 13.928 8.15199 11.6 10.456C9.19999 12.808 8 15.964 8 19.924C8 23.884 9.19999 27.04 11.6 29.392C12.728 30.52 14.06 31.378 15.596 31.966C17.132 32.554 18.794 32.848 20.582 32.848C22.37 32.848 23.906 32.632 25.19 32.2C26.474 31.768 27.68 31.24 28.808 30.616C29.336 30.352 29.6 29.896 29.6 29.248C29.6 28.888 29.474 28.57 29.222 28.294C28.97 28.018 28.67 27.88 28.322 27.88ZM23.5544 13.3501C22.8571 13.1155 22.0391 13 21.1 13C19.1362 13 17.5091 13.6248 16.2483 14.8726C14.9493 16.1456 14.3 17.8533 14.3 19.962C14.3 22.0707 14.9493 23.7784 16.25 25.0531C16.8605 25.6636 17.5862 26.131 18.4192 26.45C19.2456 26.7663 20.1371 26.924 21.091 26.924C22.036 26.924 22.857 26.8085 23.5544 26.5739C24.2247 26.3484 24.8553 26.0723 25.446 25.7455C25.8662 25.5359 26.1 25.1321 26.1 24.624C26.1 24.3179 25.9895 24.0391 25.7802 23.8099C25.5614 23.5701 25.2785 23.44 24.961 23.44C24.716 23.44 24.508 23.477 24.3324 23.5648C23.8705 23.8072 23.4068 23.9995 22.9322 24.1464C22.48 24.2863 21.923 24.358 21.262 24.358C19.8592 24.358 18.7875 23.9368 18.0112 23.0967C17.2979 22.3195 16.938 21.2827 16.938 19.962C16.938 18.6413 17.2979 17.6045 18.0124 16.8261C18.37 16.4369 18.8166 16.1304 19.357 15.9057C19.8999 15.6799 20.5128 15.566 21.199 15.566C21.9024 15.566 22.4809 15.638 22.9322 15.7776C23.4068 15.9245 23.8705 16.1168 24.3236 16.3547C24.508 16.447 24.716 16.484 24.961 16.484C25.2785 16.484 25.5614 16.3539 25.7802 16.1141C25.9888 15.8858 26.1 15.6103 26.1 15.309C26.1 15.0459 26.041 14.8099 25.9147 14.61C25.7818 14.3995 25.5257 14.2139 25.1099 13.9878C24.7383 13.7857 24.2215 13.5745 23.5544 13.3501Z" fill="white"/>
</g>
</g>
<path d="M29.6677 27.5614L28.8333 26.8107V27.9331V37.1578V38.2606L29.6628 37.5339L31.3529 36.0531L33.0164 40.1255L33.202 40.5798L33.6596 40.4028L35.5836 39.6588L36.0679 39.4715L35.8625 38.9947L34.1697 35.0632L36.689 35.0478L37.9806 35.0399L37.0204 34.1761L29.6677 27.5614Z" fill="black" stroke="white"/>
</svg>
