<?xml version="1.0" encoding="utf-8"?><svg xmlns="http://www.w3.org/2000/svg" xmlns:xlink="http://www.w3.org/1999/xlink"><symbol viewBox="0 0 90 90" fill="none" id="CB" xmlns="http://www.w3.org/2000/svg"><path fill-rule="evenodd" clip-rule="evenodd" d="M45 90c24.853 0 45-20.147 45-45S69.853 0 45 0 0 20.147 0 45s20.147 45 45 45z" fill="#F7931A"/><mask id="aa" maskUnits="userSpaceOnUse" x="0" y="0" width="90" height="90"><path fill-rule="evenodd" clip-rule="evenodd" d="M45 90c24.853 0 45-20.147 45-45S69.853 0 45 0 0 20.147 0 45s20.147 45 45 45z" fill="#fff"/></mask><g mask="url(#aa)" fill="#fff"><path d="M63.75 88.717V57.95l24.62 22.148-9.783.06 4.061 9.432-8.567 3.313-3.982-9.747-6.349 5.562z"/><path fill-rule="evenodd" clip-rule="evenodd" d="M63.724 62.73c-.782 0-1.39.108-1.822.324a39.21 39.21 0 01-6.642 2.754c-2.268.702-4.995 1.053-8.181 1.053-6.912 0-12.339-2.133-16.281-6.399-3.618-3.942-5.427-9.153-5.427-15.633 0-6.48 1.809-11.691 5.427-15.633 1.836-1.998 4.118-3.564 6.845-4.698 2.727-1.134 5.777-1.701 9.152-1.701 3.375 0 6.197.351 8.465 1.053a39.21 39.21 0 016.642 2.754c.432.216 1.04.324 1.822.324.783 0 1.459-.31 2.026-.931.567-.622.85-1.323.85-2.107 0-.782-.162-1.43-.486-1.944-.324-.513-1.255-1.188-2.795-2.024-1.538-.838-3.753-1.742-6.642-2.714-2.889-.972-6.331-1.458-10.327-1.458-8.262 0-15.012 2.592-20.25 7.776-5.4 5.292-8.1 12.393-8.1 21.303s2.7 16.011 8.1 21.303c2.538 2.538 5.535 4.468 8.991 5.791 3.456 1.323 7.195 1.985 11.218 1.985 4.024 0 7.48-.486 10.369-1.458a49.157 49.157 0 008.14-3.564c1.188-.594 1.782-1.62 1.782-3.078 0-.81-.283-1.526-.85-2.147-.567-.62-1.243-.931-2.026-.931zM52.998 30.038c-1.57-.528-3.41-.788-5.523-.788-4.419 0-8.08 1.406-10.916 4.213-2.923 2.865-4.384 6.707-4.384 11.451 0 4.745 1.46 8.587 4.388 11.456a13.807 13.807 0 004.88 3.142c1.86.712 3.866 1.067 6.012 1.067 2.126 0 3.973-.26 5.543-.788a25.702 25.702 0 004.256-1.864c.945-.471 1.471-1.38 1.471-2.523 0-.689-.249-1.316-.72-1.832-.492-.54-1.129-.832-1.843-.832-.551 0-1.019.083-1.414.28-1.04.546-2.083.979-3.15 1.31-1.018.314-2.271.476-3.758.476-3.157 0-5.568-.948-7.315-2.838-1.605-1.75-2.414-4.082-2.414-7.054 0-2.971.81-5.304 2.417-7.055.804-.876 1.81-1.566 3.025-2.071 1.222-.508 2.6-.764 4.145-.764 1.582 0 2.884.161 3.9.476 1.067.33 2.11.763 3.13 1.298.415.208.883.291 1.434.291.715 0 1.351-.293 1.843-.832.47-.514.72-1.134.72-1.812 0-.592-.133-1.123-.417-1.572-.299-.474-.875-.892-1.81-1.4-.837-.455-2-.93-3.5-1.435z"/></g><path d="M66 62.85v20.755l4.989-4.371 4.34 10.623 4.329-1.674-4.481-10.406 7.366-.045L66 62.85z" fill="#000"/></symbol><symbol viewBox="0 0 48 48" fill="none" id="aliases" xmlns="http://www.w3.org/2000/svg"><path fill-rule="evenodd" clip-rule="evenodd" d="M19.493 38.821a2.6 2.6 0 00.774 1.823l3.423 3.092c2.706 2.761 6.296 4.253 10.051 4.253s7.345-1.492 10.05-4.198c2.707-2.705 4.198-6.294 4.198-10.05 0-3.755-1.491-7.345-4.197-10.05l-3.259-3.26a2.598 2.598 0 00-1.822-.772c-.663 0-1.325.276-1.822.773a2.6 2.6 0 00-.773 1.822 2.6 2.6 0 00.773 1.823l3.258 3.258c1.712 1.712 2.65 3.976 2.65 6.461 0 2.485-.938 4.75-2.65 6.462-1.712 1.711-3.976 2.65-6.461 2.65-2.43 0-4.75-.939-6.461-2.65l-3.259-3.26a2.6 2.6 0 00-1.822-.772 2.6 2.6 0 00-1.822.773c-.552.497-.829 1.104-.829 1.822z" fill="#F7931A"/><path fill-rule="evenodd" clip-rule="evenodd" d="M16.114 18.71c0 .662.276 1.325.773 1.822l10.99 10.934c1.049 1.05 2.65 1.05 3.644 0a2.532 2.532 0 000-3.59L20.532 16.943a2.599 2.599 0 00-1.822-.773 2.6 2.6 0 00-1.823.773 3.028 3.028 0 00-.773 1.768z" fill="#fff"/><path fill-rule="evenodd" clip-rule="evenodd" d="M24.442 11.575a2.6 2.6 0 001.823.773 2.6 2.6 0 001.822-.773 2.534 2.534 0 000-3.59l-3.259-3.258C22.123 1.967 18.533.531 14.778.531c-3.755 0-7.345 1.435-10.05 4.141C2.02 7.378.53 10.968.53 14.722c0 3.756 1.491 7.346 4.197 10.051l3.258 3.259c1.05 1.049 2.651 1.049 3.645 0a2.6 2.6 0 00.773-1.823c0-.662-.276-1.325-.773-1.822l-3.258-3.258c-1.712-1.712-2.65-3.976-2.65-6.461 0-2.485.938-4.75 2.65-6.461 1.712-1.712 3.977-2.651 6.462-2.651 2.429 0 4.748.939 6.46 2.65l3.148 3.37z" fill="#F7931A"/></symbol><symbol viewBox="0 0 31.479 31.479" id="arrow" xmlns="http://www.w3.org/2000/svg"><path d="M26.477 10.274a1.112 1.112 0 010 1.587 1.12 1.12 0 01-1.571 0l-8.047-8.047v26.555c0 .619-.492 1.111-1.111 1.111a1.118 1.118 0 01-1.127-1.111V3.813L6.59 11.86c-.444.429-1.159.429-1.587 0a1.112 1.112 0 010-1.587L14.955.321a1.12 1.12 0 011.571 0l9.951 9.953z"/></symbol><symbol viewBox="0 0 12 33" id="arrow-down"><path fill-rule="evenodd" clip-rule="evenodd" d="M5.492 32.78L.201 27.247a.73.73 0 010-1.005.658.658 0 01.96 0l4.185 4.373V.681A.67.67 0 016.002 0a.67.67 0 01.657.68v29.93l4.18-4.368a.659.659 0 01.962 0 .734.734 0 010 1.005L6.508 32.78a.667.667 0 01-.239.159.623.623 0 01-.532 0 .68.68 0 01-.245-.16z"/></symbol><symbol viewBox="0 0 80 80" fill="none" id="bitcoin" xmlns="http://www.w3.org/2000/svg"><path d="M78.803 49.676c-5.343 21.429-27.05 34.47-48.483 29.126C8.895 73.46-4.147 51.755 1.198 30.328 6.538 8.897 28.245-4.145 49.672 1.197c21.432 5.342 34.474 27.05 29.13 48.48z" fill="#F7931A"/><path fill-rule="evenodd" clip-rule="evenodd" d="M56.917 33.589c.797-5.24-3.256-8.058-8.797-9.937l1.797-7.1-4.388-1.076-1.75 6.912c-1.154-.283-2.339-.55-3.517-.815l1.763-6.958-4.386-1.076-1.799 7.096c-.955-.214-1.893-.426-2.803-.649l.005-.022-6.052-1.488-1.167 4.616s3.256.735 3.187.78c1.777.437 2.099 1.595 2.045 2.513l-2.047 8.088c.122.03.28.075.456.144l-.149-.037a34.07 34.07 0 00-.315-.077l-2.87 11.33c-.217.531-.769 1.329-2.011 1.026.044.063-3.19-.784-3.19-.784l-2.179 4.947 5.711 1.401c.638.158 1.268.32 1.892.48l1.237.316-1.816 7.18 4.383 1.077 1.8-7.104c1.197.32 2.36.615 3.497.893l-1.793 7.071 4.389 1.077 1.816-7.167c7.484 1.395 13.111.832 15.48-5.833 1.909-5.366-.095-8.461-4.032-10.48 2.867-.65 5.027-2.508 5.603-6.344zM46.89 47.434c-1.244 4.923-9.07 2.888-12.652 1.956-.322-.083-.61-.158-.855-.218l2.41-9.513c.299.074.664.154 1.078.246 3.704.818 11.294 2.495 10.019 7.529zM37.615 35.49c2.986.785 9.498 2.496 10.633-1.979 1.158-4.577-5.172-5.956-8.263-6.63a37.853 37.853 0 01-.905-.204l-2.185 8.628c.206.05.449.114.72.185z" fill="#fff"/></symbol><symbol viewBox="0 0 78.369 78.369" id="check" xmlns="http://www.w3.org/2000/svg"><path d="M78.049 19.015L29.458 67.606a1.094 1.094 0 01-1.548 0L.32 40.015a1.094 1.094 0 010-1.547l6.704-6.704a1.095 1.095 0 011.548 0l20.113 20.112 41.113-41.113a1.095 1.095 0 011.548 0l6.703 6.704a1.094 1.094 0 010 1.548z"/></symbol><symbol viewBox="0 0 512.023 512.023" id="chrome" xmlns="http://www.w3.org/2000/svg"><path d="M493.248 160.021H256.021c-53.019-.052-96.042 42.886-96.095 95.905a95.999 95.999 0 0012.255 47.028L53.568 99.434c86.393-111.815 247.073-132.423 358.888-46.03a255.85 255.85 0 0180.792 106.617z" fill="#f44336"/><path d="M512.021 256.021c-.118 141.336-114.664 255.882-256 256a228.332 228.332 0 01-32-2.133l115.2-205.867c26.403-45.964 10.664-104.625-35.2-131.2a95.106 95.106 0 00-47.787-12.8h237.013a252.409 252.409 0 0118.774 96z" fill="#ffc107"/><path d="M339.221 304.021l-115.2 205.867h-.213C83.62 492.176-15.666 364.172 2.046 223.984a255.853 255.853 0 0151.522-124.55l118.613 203.52.64 1.067c26.451 45.95 85.143 61.757 131.093 35.307a95.992 95.992 0 0035.307-35.307z" fill="#4caf50"/><path d="M339.221 304.021c-26.451 45.95-85.143 61.757-131.093 35.307a96.007 96.007 0 01-35.307-35.307l-.64-1.067c-25.921-46.251-9.439-104.758 36.812-130.679a96.004 96.004 0 0147.028-12.255h.213a95.106 95.106 0 0147.787 12.8c45.865 26.576 61.603 85.237 35.2 131.201z" fill="#f44336"/><path d="M339.221 304.021c-26.451 45.95-85.143 61.757-131.093 35.307a96.007 96.007 0 01-35.307-35.307l-.64-1.067c-25.921-46.251-9.439-104.758 36.812-130.679a96.004 96.004 0 0147.028-12.255h.213a95.106 95.106 0 0147.787 12.8c45.865 26.576 61.603 85.237 35.2 131.201z" fill="#2196f3"/><path d="M255.659 362.688a105.899 105.899 0 01-52.971-14.208 107.06 107.06 0 01-39.104-39.125c-29.455-51.018-11.975-116.254 39.043-145.709a106.678 106.678 0 0153.395-14.291c58.91-.046 106.704 47.674 106.749 106.584a106.663 106.663 0 01-14.291 53.416 107.265 107.265 0 01-92.821 53.333zm.554-192a85.099 85.099 0 00-74.219 42.667c-23.564 40.86-9.543 93.087 31.317 116.651s93.087 9.543 116.651-31.317c23.564-40.814 9.58-93.003-31.234-116.568a85.337 85.337 0 00-42.494-11.432h-.021z" fill="#fafafa"/></symbol><symbol viewBox="0 0 18 18" fill="none" id="clip-btn" xmlns="http://www.w3.org/2000/svg"><path fill-rule="evenodd" clip-rule="evenodd" d="M7.31 14.558a.98.98 0 00.29.684l1.284 1.16a5.251 5.251 0 003.769 1.594c1.408 0 2.754-.56 3.769-1.574a5.314 5.314 0 001.574-3.769c0-1.408-.56-2.754-1.574-3.769L15.2 7.662a.974.974 0 00-.683-.29.974.974 0 00-.684.29.975.975 0 00-.29.683c0 .249.104.497.29.684l1.222 1.222a3.38 3.38 0 01.994 2.423 3.38 3.38 0 01-.994 2.423 3.38 3.38 0 01-2.423.993 3.415 3.415 0 01-2.423-.993l-1.222-1.222a.975.975 0 00-.683-.29.975.975 0 00-.683.29.885.885 0 00-.311.683z" fill="#fff"/><path fill-rule="evenodd" clip-rule="evenodd" d="M6.043 7.016a.97.97 0 00.29.683l4.12 4.1c.394.394.995.394 1.367 0a.95.95 0 000-1.345l-4.12-4.1a.974.974 0 00-.684-.29.974.974 0 00-.683.29c-.166.186-.27.414-.29.662z" fill="#fff"/><path fill-rule="evenodd" clip-rule="evenodd" d="M9.166 4.34c.186.187.435.29.683.29a.975.975 0 00.684-.29.95.95 0 000-1.345L9.31 1.773A5.23 5.23 0 005.54.199a5.295 5.295 0 00-3.768 1.553 5.315 5.315 0 00-1.574 3.77c0 1.407.559 2.753 1.574 3.768l1.222 1.222c.393.393.994.393 1.366 0a.975.975 0 00.29-.683.974.974 0 00-.29-.684L3.14 7.923A3.38 3.38 0 012.146 5.5c0-.931.352-1.78.994-2.423a3.38 3.38 0 012.423-.994c.91 0 1.78.353 2.422.994l1.18 1.264z" fill="#fff"/></symbol><symbol viewBox="0 0 128 54" fill="none" id="clips" xmlns="http://www.w3.org/2000/svg"><path fill-rule="evenodd" clip-rule="evenodd" d="M21.93 43.674c0 .745.31 1.491.87 2.05l3.852 3.48c3.044 3.105 7.082 4.783 11.307 4.783 4.224 0 8.262-1.678 11.307-4.722 3.044-3.043 4.721-7.081 4.721-11.306 0-4.225-1.677-8.263-4.721-11.307L45.6 22.986a2.923 2.923 0 00-2.05-.87 2.92 2.92 0 00-2.05.87c-.56.56-.87 1.305-.87 2.05 0 .746.31 1.491.87 2.05l3.665 3.666c1.926 1.926 2.982 4.473 2.982 7.268 0 2.796-1.056 5.343-2.982 7.27-1.926 1.925-4.473 2.981-7.268 2.981-2.734 0-5.343-1.056-7.27-2.981l-3.665-3.666a2.925 2.925 0 00-2.05-.87c-.745 0-1.49.311-2.05.87-.621.56-.932 1.242-.932 2.05z" fill="#4285F4"/><path fill-rule="evenodd" clip-rule="evenodd" d="M18.128 21.048c0 .746.311 1.491.87 2.05L31.361 35.4c1.18 1.18 2.982 1.18 4.1 0a2.849 2.849 0 000-4.039L23.1 19.061a2.924 2.924 0 00-2.05-.87c-.746 0-1.492.31-2.05.87a3.406 3.406 0 00-.87 1.987z" fill="#4285F4"/><path fill-rule="evenodd" clip-rule="evenodd" d="M27.497 13.022c.56.56 1.305.87 2.051.87.745 0 1.49-.31 2.05-.87a2.85 2.85 0 000-4.038l-3.666-3.666C24.888 2.212 20.85.597 16.625.597c-4.225 0-8.263 1.615-11.307 4.66C2.274 8.3.597 12.338.597 16.562c0 4.225 1.677 8.263 4.721 11.307l3.666 3.666c1.18 1.18 2.982 1.18 4.1 0 .56-.56.87-1.305.87-2.05 0-.746-.31-1.492-.87-2.05L9.418 23.77c-1.925-1.926-2.98-4.473-2.98-7.269 0-2.796 1.055-5.343 2.98-7.269 1.926-1.926 4.474-2.982 7.27-2.982 2.733 0 5.342 1.056 7.268 2.982l3.541 3.79zM58.93 43.674c0 .745.31 1.491.87 2.05l3.852 3.48c3.044 3.105 7.082 4.783 11.307 4.783 4.224 0 8.262-1.678 11.307-4.722 3.044-3.043 4.721-7.081 4.721-11.306 0-4.225-1.677-8.263-4.721-11.307L82.6 22.986a2.923 2.923 0 00-2.05-.87 2.92 2.92 0 00-2.05.87c-.56.56-.87 1.305-.87 2.05 0 .746.31 1.491.87 2.05l3.665 3.666c1.926 1.926 2.982 4.473 2.982 7.268 0 2.796-1.056 5.343-2.982 7.27-1.926 1.925-4.473 2.981-7.269 2.981-2.733 0-5.342-1.056-7.268-2.981l-3.666-3.666a2.925 2.925 0 00-2.05-.87c-.745 0-1.49.311-2.05.87-.621.56-.932 1.242-.932 2.05z" fill="#4285F4"/><path fill-rule="evenodd" clip-rule="evenodd" d="M55.129 21.048c0 .746.31 1.491.87 2.05L68.36 35.4c1.18 1.18 2.982 1.18 4.1 0a2.849 2.849 0 000-4.039l-12.36-12.3a2.923 2.923 0 00-2.05-.87c-.746 0-1.492.31-2.05.87a3.407 3.407 0 00-.87 1.987z" fill="#F7931A"/><path fill-rule="evenodd" clip-rule="evenodd" d="M64.497 13.022c.56.56 1.305.87 2.051.87.745 0 1.49-.31 2.05-.87a2.85 2.85 0 000-4.038l-3.666-3.666C61.888 2.212 57.85.597 53.625.597c-4.224 0-8.263 1.615-11.307 4.66-3.044 3.043-4.721 7.082-4.721 11.306 0 4.225 1.677 8.263 4.721 11.307l3.666 3.666c1.18 1.18 2.982 1.18 4.1 0 .56-.56.87-1.305.87-2.05 0-.746-.31-1.492-.87-2.05l-3.666-3.666c-1.925-1.926-2.98-4.473-2.98-7.269 0-2.796 1.055-5.343 2.98-7.269 1.926-1.926 4.474-2.982 7.27-2.982 2.733 0 5.342 1.056 7.268 2.982l3.541 3.79zM95.93 43.674c0 .745.31 1.491.87 2.05l3.852 3.48c3.044 3.105 7.082 4.783 11.307 4.783 4.224 0 8.262-1.678 11.307-4.722 3.044-3.043 4.721-7.081 4.721-11.306 0-4.225-1.677-8.263-4.721-11.307l-3.666-3.666a2.923 2.923 0 00-2.05-.87c-.746 0-1.491.31-2.05.87a2.925 2.925 0 00-.87 2.05c0 .746.311 1.491.87 2.05l3.665 3.666c1.926 1.926 2.982 4.473 2.982 7.268 0 2.796-1.056 5.343-2.982 7.27-1.926 1.925-4.473 2.981-7.269 2.981-2.733 0-5.342-1.056-7.268-2.981l-3.666-3.666a2.925 2.925 0 00-2.05-.87c-.745 0-1.49.311-2.05.87-.621.56-.932 1.242-.932 2.05z" fill="#4285F4"/><path fill-rule="evenodd" clip-rule="evenodd" d="M92.129 21.048c0 .746.31 1.491.87 2.05L105.36 35.4c1.181 1.18 2.982 1.18 4.1 0a2.848 2.848 0 000-4.039l-12.362-12.3a2.923 2.923 0 00-2.05-.87c-.746 0-1.492.31-2.05.87a3.407 3.407 0 00-.87 1.987z" fill="#494949"/><path fill-rule="evenodd" clip-rule="evenodd" d="M101.497 13.022a2.92 2.92 0 002.051.87c.745 0 1.49-.31 2.05-.87a2.85 2.85 0 000-4.038l-3.666-3.666C98.888 2.212 94.85.597 90.625.597c-4.225 0-8.263 1.615-11.307 4.66-3.044 3.043-4.721 7.082-4.721 11.306 0 4.225 1.677 8.263 4.721 11.307l3.666 3.666c1.18 1.18 2.982 1.18 4.1 0 .56-.56.87-1.305.87-2.05 0-.746-.31-1.492-.87-2.05l-3.666-3.666c-1.925-1.926-2.98-4.473-2.98-7.269 0-2.796 1.055-5.343 2.98-7.269 1.926-1.926 4.474-2.982 7.27-2.982 2.733 0 5.342 1.056 7.268 2.982l3.541 3.79z" fill="#4285F4"/></symbol><symbol viewBox="0 0 43 66" fill="none" id="cursor" xmlns="http://www.w3.org/2000/svg"><path d="M2 4v46.11l11.158-9.71L22.863 64l9.682-3.719-10.02-23.117 16.475-.1L2 4z" fill="#000" stroke="#fff" stroke-width="3"/></symbol><symbol viewBox="0 0 60 60" fill="none" id="customers" xmlns="http://www.w3.org/2000/svg"><path d="M25.742 39.396a5.15 5.15 0 100-10.301 5.15 5.15 0 000 10.301z" fill="#F7931A"/><path d="M59.968 9.262a.255.255 0 00-.242-.156l-7.631.15-1.363-1.363.15-7.63a.257.257 0 00-.44-.187l-7.51 7.51a.257.257 0 00-.076.178l-.122 6.214-18.63 18.628 3.277 3.278 18.63-18.63 6.213-.122a.259.259 0 00.177-.075l7.512-7.513a.257.257 0 00.055-.282z" fill="#F7931A"/><path d="M43.626 24.01a20.482 20.482 0 012.719 10.236 20.47 20.47 0 01-6.033 14.569 20.47 20.47 0 01-14.57 6.035 20.472 20.472 0 01-14.57-6.035c-8.032-8.034-8.032-21.105 0-29.139a20.475 20.475 0 0114.57-6.033c3.65 0 7.153.949 10.236 2.719l3.748-3.746a25.574 25.574 0 00-13.983-4.124c-6.879 0-13.346 2.679-18.21 7.542C-2.51 26.076-2.512 42.414 7.53 52.456c4.865 4.864 11.332 7.543 18.212 7.543 6.879 0 13.348-2.679 18.21-7.543 4.864-4.863 7.544-11.33 7.543-18.21 0-5.038-1.443-9.852-4.123-13.982l-3.746 3.746z" fill="#F7931A"/><path d="M36.179 31.457c.957 3.606.034 7.614-2.789 10.437a10.745 10.745 0 01-7.648 3.168c-2.89 0-5.605-1.126-7.65-3.168-4.216-4.217-4.216-11.08 0-15.297a10.752 10.752 0 0110.445-2.794l4.01-4.01a15.901 15.901 0 00-6.805-1.515 15.866 15.866 0 00-11.291 4.678 15.866 15.866 0 00-4.677 11.29 15.86 15.86 0 004.676 11.291 15.872 15.872 0 0011.292 4.678 15.86 15.86 0 0011.29-4.678c4.884-4.883 5.935-12.168 3.157-18.087l-4.01 4.008z" fill="#fff"/></symbol><symbol viewBox="0 0 18 18" id="fb" xmlns="http://www.w3.org/2000/svg"><path fill-rule="evenodd" clip-rule="evenodd" d="M2.625 0A2.625 2.625 0 000 2.625v12.75A2.625 2.625 0 002.625 18h6.79v-7.061H7.152V8.432h2.265V6.594s-.163-3.822 3.144-3.822h2.675v2.555h-1.667s-1.227-.067-1.24 1.2v1.905h2.697l-.39 2.507h-2.334V18h3.074A2.625 2.625 0 0018 15.375V2.625A2.625 2.625 0 0015.375 0H2.625z"/></symbol><symbol viewBox="0 0 53 58" fill="none" id="geo" xmlns="http://www.w3.org/2000/svg"><path fill-rule="evenodd" clip-rule="evenodd" d="M30.333 33V15.264H38L26.5 0 15 15.264h7.667V33a13.465 13.465 0 013.833-.563c1.332 0 2.616.2 3.833.563z" fill="#4285F4"/><path fill-rule="evenodd" clip-rule="evenodd" d="M19 34.703l-6.648-8.77 6.142-4.625L0 16v19.19l6.21-4.628L13.364 40A13.526 13.526 0 0119 34.703zm15.506-13.395l6.142 4.625L34 34.703A13.526 13.526 0 0139.637 40l7.152-9.438L53 35.191V16l-18.494 5.308z" fill="#F7931A"/><path d="M26.5 39a8.501 8.501 0 010 17 8.501 8.501 0 010-17z" stroke="#494949" stroke-width="4"/><path fill-rule="evenodd" clip-rule="evenodd" d="M26.5 51a3.5 3.5 0 100-7 3.5 3.5 0 000 7z" fill="#4285F4"/></symbol><symbol viewBox="0 0 20 20" id="instagram" xmlns="http://www.w3.org/2000/svg"><path fill-rule="evenodd" clip-rule="evenodd" d="M5.74.077C2.62.077.09 2.64.09 5.798v8.386c0 3.16 2.53 5.721 5.651 5.721h8.384c3.12 0 5.652-2.562 5.652-5.72V5.797c0-3.16-2.53-5.72-5.652-5.72H5.74zM1.911 14.184V5.798c0-2.14 1.716-3.875 3.83-3.875h8.383c2.115 0 3.83 1.734 3.83 3.875v8.386c0 2.14-1.716 3.876-3.83 3.876H5.74c-2.115 0-3.829-1.735-3.829-3.876zm2.865-4.114c0 2.898 2.32 5.247 5.182 5.247 2.862 0 5.183-2.349 5.183-5.247 0-2.898-2.32-5.247-5.183-5.247-2.862 0-5.182 2.35-5.182 5.247zm8.542 0c0 1.879-1.504 3.402-3.36 3.402-1.855 0-3.359-1.523-3.359-3.402 0-1.878 1.504-3.401 3.36-3.401 1.855 0 3.359 1.523 3.359 3.401zm3.125-5.379c0 .7-.56 1.266-1.25 1.266s-1.25-.567-1.25-1.266c0-.699.56-1.265 1.25-1.265s1.25.566 1.25 1.265z"/></symbol><symbol viewBox="0 0 56 56" fill="none" id="landings" xmlns="http://www.w3.org/2000/svg"><path d="M29.87 26L28 20.238 26.13 26h-6.047l4.891 3.547-1.87 5.757L28 31.746l4.896 3.558-1.87-5.757L35.917 26H29.87z" fill="#F7931A"/><path fill-rule="evenodd" clip-rule="evenodd" d="M54.742 24.748A9.998 9.998 0 0054 28a10 10 0 00.741 3.251 6.01 6.01 0 01.562 2.98 6.09 6.09 0 01-1.85 2.529 9.668 9.668 0 00-2.022 2.521 9.873 9.873 0 00-.731 3.2 6.07 6.07 0 01-.808 2.975 6.088 6.088 0 01-2.733 1.455 9.807 9.807 0 00-2.95 1.416 9.771 9.771 0 00-2.023 2.551 6.06 6.06 0 01-2.036 2.353 6.039 6.039 0 01-3.061.122 10.04 10.04 0 00-3.3 0 9.621 9.621 0 00-2.889 1.4A6.1 6.1 0 0128 56a6.1 6.1 0 01-2.901-1.246 9.628 9.628 0 00-2.888-1.4 6.23 6.23 0 00-1.381-.141c-.642.012-1.283.06-1.92.142a6.05 6.05 0 01-3.061-.122 6.075 6.075 0 01-2.036-2.353 9.763 9.763 0 00-2.023-2.55 9.78 9.78 0 00-2.949-1.418 6.064 6.064 0 01-2.733-1.455 6.068 6.068 0 01-.809-2.975 9.88 9.88 0 00-.73-3.2 9.69 9.69 0 00-2.022-2.52 6.092 6.092 0 01-1.851-2.53 6.01 6.01 0 01.562-2.98A10 10 0 002 28a10 10 0 00-.738-3.252 6.01 6.01 0 01-.562-2.98 6.089 6.089 0 011.847-2.53 9.669 9.669 0 002.022-2.521c.42-1.018.668-2.1.731-3.2a6.069 6.069 0 01.807-2.975A6.088 6.088 0 018.84 9.087a9.807 9.807 0 002.95-1.416 9.75 9.75 0 002.022-2.551 6.069 6.069 0 012.038-2.351 6.051 6.051 0 013.061-.122 9.933 9.933 0 003.3 0 9.621 9.621 0 002.889-1.4A6.1 6.1 0 0128 0a6.1 6.1 0 012.902 1.245 9.629 9.629 0 002.888 1.4 9.939 9.939 0 003.3 0 6.03 6.03 0 013.061.122 6.076 6.076 0 012.036 2.353 9.763 9.763 0 002.023 2.55 9.78 9.78 0 002.949 1.418 6.065 6.065 0 012.733 1.455c.521.905.8 1.93.809 2.975.063 1.1.31 2.181.73 3.2a9.69 9.69 0 002.022 2.52 6.091 6.091 0 011.851 2.53 6.01 6.01 0 01-.562 2.98zm-3.55-2.936c-.268-1.01-.602-2-1-2.965l-1.851.763c.365.885.672 1.792.919 2.717l1.932-.515zm-4.115-8.376a24.328 24.328 0 011.734 2.6l-1.733 1a22.335 22.335 0 00-1.59-2.387l1.589-1.213zm-2.057-2.357a24.375 24.375 0 00-2.343-2.07l-1.226 1.58a21.87 21.87 0 012.149 1.9l1.42-1.41zm-7.73-5.215c.963.405 1.898.873 2.8 1.4L39.081 8.99a22.16 22.16 0 00-2.562-1.279l.771-1.847zm-2.958-1.019a23.897 23.897 0 00-3.064-.624L31 6.2c.947.13 1.884.322 2.806.574l.526-1.929zM28 4h.143v2H28c-.912 0-1.823.056-2.728.166l-.243-1.984A24.413 24.413 0 0128 4zm-5.543 2.703l-.5-1.935a23.68 23.68 0 00-2.974.982l.753 1.853a21.67 21.67 0 012.721-.9zm-6.289.413l.987 1.738c-.833.474-1.635 1-2.4 1.577l-1.2-1.6c.833-.627 1.706-1.2 2.613-1.715zm-3.583 5.187l-1.4-1.428A24.217 24.217 0 009.1 13.207l1.574 1.232a22.205 22.205 0 011.911-2.136zm-5.249 3.483l1.721 1.02a21.934 21.934 0 00-1.3 2.554l-1.839-.787c.412-.959.886-1.89 1.418-2.787zm-.526 6.276l-1.926-.539a24.126 24.126 0 00-.643 3.062l1.98.283c.135-.947.332-1.884.589-2.806zm-2.645 8.761C4.055 29.886 4 28.943 4 28v-.3l2 .022v.28c0 .864.05 1.728.151 2.586l-1.986.235zM4.73 33.9c.258 1.012.582 2.007.97 2.977l1.854-.739c-.354-.889-.65-1.8-.884-2.728l-1.94.49zm4.018 8.427a24.244 24.244 0 01-1.7-2.624l1.745-.976c.468.835.99 1.639 1.561 2.407l-1.606 1.193zm2.028 2.381c.727.75 1.501 1.45 2.318 2.1l1.243-1.568a22.042 22.042 0 01-2.125-1.925l-1.436 1.393zm7.666 5.31a23.987 23.987 0 01-2.779-1.431l1.03-1.715c.819.492 1.669.93 2.545 1.312l-.796 1.834zm2.944 1.058a24.14 24.14 0 003.056.662l.294-1.978a22.14 22.14 0 01-2.8-.608l-.55 1.924zM28 52h-.448l.041-2H28c.82 0 1.641-.045 2.457-.135l.218 1.989A24.85 24.85 0 0128 52zm5.277-2.642l.479 1.942v.005a23.81 23.81 0 002.983-.951l-.727-1.863c-.892.349-1.805.638-2.735.867zM28 47C17.507 47 9 38.493 9 28S17.507 9 28 9s19 8.507 19 19c-.012 10.489-8.511 18.988-19 19zm10.607.278l.966 1.752a24.342 24.342 0 002.635-1.685l-1.185-1.612a22.126 22.126 0 01-2.416 1.545zm5.995-1.948a24.263 24.263 0 002.113-2.304l-1.559-1.254c-.6.746-1.247 1.453-1.938 2.115l1.383 1.443-.001.001.002-.001zm2.198-5.902l1.711 1.04v.001a23.962 23.962 0 001.445-2.77l-1.829-.808c-.387.874-.83 1.721-1.327 2.537zm4.234-4.668l-1.919-.56a22.15 22.15 0 00.624-2.8l1.976.307a23.995 23.995 0 01-.681 3.054v-.001zm-1.041-6.215l2 .047v.001C52 28.4 52 28.2 52 28c0-1.043-.068-2.085-.202-3.12l-1.984.258a22.126 22.126 0 01.182 3.135c-.002.09-.003.181-.003.272z" fill="#F7931A"/><path fill-rule="evenodd" clip-rule="evenodd" d="M11 28c0-9.389 7.611-17 17-17 9.385.01 16.99 7.616 17 17 0 9.389-7.611 17-17 17s-17-7.611-17-17zm17 6.219l8.7 6.321-3.323-10.228L42.083 24H31.324L28 13.758 24.676 24H13.917l8.706 6.312L19.3 40.54l8.7-6.321z" fill="#fff"/></symbol><symbol viewBox="0 0 511.999 511.999" id="like" xmlns="http://www.w3.org/2000/svg"><path d="M83.578 167.256H16.716C7.524 167.256 0 174.742 0 183.971v300.881c0 9.225 7.491 16.713 16.716 16.713h66.862c9.225 0 16.716-7.489 16.716-16.713V183.971c0-9.229-7.525-16.715-16.716-16.715zm386.688 0c-2.692-.456-128.739 0-128.739 0l17.606-48.032c12.148-33.174 4.283-83.827-29.424-101.835-10.975-5.864-26.309-8.809-38.672-5.697-7.09 1.784-13.321 6.478-17.035 12.767-4.271 7.233-3.83 15.676-5.351 23.696-3.857 20.342-13.469 39.683-28.354 54.2-25.952 25.311-106.571 98.331-106.571 98.331v267.45h278.593c37.592.022 62.228-41.958 43.687-74.749 22.101-14.155 29.66-43.97 16.716-66.862 22.102-14.155 29.66-43.97 16.716-66.862 38.134-24.423 25.385-84.871-19.172-92.407z"/></symbol><symbol viewBox="0 0 60 60" fill="none" id="link-control" xmlns="http://www.w3.org/2000/svg"><path d="M30 58c15.464 0 28-12.536 28-28S45.464 2 30 2 2 14.536 2 30s12.536 28 28 28z" fill="#fff" stroke="#000" stroke-width="4"/><rect x="13.5" y="43.5" width="3" height="33" rx="1.5" transform="rotate(-90 13.5 43.5)" fill="#000"/><rect x="13.5" y="31.5" width="3" height="33" rx="1.5" transform="rotate(-90 13.5 31.5)" fill="#4285F4"/><rect x="13.5" y="19.5" width="3" height="33" rx="1.5" transform="rotate(-90 13.5 19.5)" fill="#F7931A"/><rect x="24" y="49.5" width="15" height="6" rx="3" transform="rotate(-90 24 49.5)" fill="#000" stroke="#fff" stroke-width="3"/><rect x="34.5" y="37.5" width="15" height="6" rx="3" transform="rotate(-90 34.5 37.5)" fill="#4285F4" stroke="#fff" stroke-width="3"/><rect x="19.5" y="25.5" width="15" height="6" rx="3" transform="rotate(-90 19.5 25.5)" fill="#F7931A" stroke="#fff" stroke-width="3"/></symbol><symbol viewBox="0 0 61 36" fill="none" id="link-managment" xmlns="http://www.w3.org/2000/svg"><path fill-rule="evenodd" clip-rule="evenodd" d="M14.46 28.796c0 .492.204.983.573 1.352l2.54 2.294c2.007 2.048 4.67 3.154 7.455 3.154s5.448-1.106 7.455-3.113c2.007-2.007 3.113-4.67 3.113-7.455 0-2.786-1.106-5.448-3.113-7.455l-2.417-2.417a1.927 1.927 0 00-1.352-.574c-.491 0-.983.205-1.351.574-.37.369-.574.86-.574 1.351 0 .492.205.983.573 1.352l2.417 2.417c1.27 1.27 1.966 2.95 1.966 4.793s-.696 3.522-1.966 4.793c-1.27 1.269-2.949 1.965-4.792 1.965a6.756 6.756 0 01-4.793-1.966l-2.417-2.417a1.929 1.929 0 00-1.351-.573 1.93 1.93 0 00-1.352.573c-.41.37-.615.82-.615 1.352z" fill="#fff"/><path fill-rule="evenodd" clip-rule="evenodd" d="M11.953 13.878c0 .492.205.983.573 1.352l8.152 8.11c.778.779 1.966.779 2.703 0a1.878 1.878 0 000-2.662l-8.151-8.11a1.928 1.928 0 00-1.352-.574 1.93 1.93 0 00-1.352.573c-.327.369-.532.82-.573 1.311z" fill="#000"/><path fill-rule="evenodd" clip-rule="evenodd" d="M18.13 8.586c.369.369.86.573 1.352.573.491 0 .983-.204 1.352-.573a1.88 1.88 0 000-2.663l-2.417-2.416C16.41 1.459 13.747.393 10.962.393a10.473 10.473 0 00-7.455 3.073C1.498 5.473.393 8.136.393 10.92s1.106 5.448 3.114 7.455l2.416 2.417c.779.778 1.966.778 2.704 0A1.93 1.93 0 009.2 19.44a1.93 1.93 0 00-.573-1.352L6.21 15.672c-1.27-1.27-1.966-2.949-1.966-4.792S4.94 7.357 6.21 6.087s2.95-1.966 4.793-1.966c1.802 0 3.522.696 4.792 1.966l2.335 2.499zm20.725 20.21c0 .492.205.983.574 1.352l2.54 2.294c2.006 2.048 4.669 3.154 7.454 3.154 2.786 0 5.448-1.106 7.455-3.113 2.008-2.007 3.114-4.67 3.114-7.455 0-2.786-1.106-5.448-3.114-7.455l-2.416-2.417a1.927 1.927 0 00-1.352-.574c-.492 0-.983.205-1.352.574-.369.369-.573.86-.573 1.351 0 .492.204.983.573 1.352l2.417 2.417c1.27 1.27 1.966 2.95 1.966 4.793s-.696 3.522-1.966 4.793c-1.27 1.269-2.95 1.965-4.793 1.965a6.756 6.756 0 01-4.792-1.966l-2.417-2.417a1.929 1.929 0 00-1.352-.573c-.491 0-.983.205-1.352.573-.41.37-.614.82-.614 1.352z" fill="#4285F4"/><path fill-rule="evenodd" clip-rule="evenodd" d="M36.349 13.878c0 .492.204.983.573 1.352l8.151 8.11c.779.779 1.967.779 2.703 0a1.878 1.878 0 000-2.662l-8.15-8.11a1.928 1.928 0 00-1.352-.574 1.93 1.93 0 00-1.352.573 2.24 2.24 0 00-.573 1.311z" fill="#000"/><path fill-rule="evenodd" clip-rule="evenodd" d="M42.526 8.586c.368.369.86.573 1.352.573.49 0 .983-.204 1.352-.573a1.88 1.88 0 000-2.663l-2.418-2.416C40.805 1.459 38.142.393 35.357.393S29.91 1.46 27.902 3.466c-2.007 2.007-3.113 4.67-3.113 7.455s1.106 5.448 3.113 7.455l2.417 2.417c.779.778 1.966.778 2.703 0 .369-.369.574-.86.574-1.352 0-.492-.205-.983-.574-1.352l-2.416-2.417c-1.27-1.27-1.966-2.949-1.966-4.792s.696-3.523 1.966-4.793 2.95-1.966 4.793-1.966c1.801 0 3.522.696 4.792 1.966l2.335 2.499z" fill="#fff"/></symbol><symbol viewBox="0 0 60 60" fill="none" id="optimize" xmlns="http://www.w3.org/2000/svg"><path d="M30 60c16.569 0 30-13.431 30-30C60 13.431 46.569 0 30 0 13.431 0 0 13.431 0 30c0 16.569 13.431 30 30 30z" fill="#4285F4"/><path d="M30 56C15.64 56 4 44.36 4 30S15.64 4 30 4s26 11.64 26 26-11.64 26-26 26z" fill="#fff"/><rect x="16.5" y="13.5" width="3" height="33" rx="1.5" fill="#494949"/><rect x="28.5" y="13.5" width="3" height="33" rx="1.5" fill="#4285F4"/><rect x="40.5" y="13.5" width="3" height="33" rx="1.5" fill="#F7931A"/><rect x="10.5" y="24" width="15" height="6" rx="3" fill="#494949" stroke="#fff" stroke-width="3"/><rect x="22.5" y="34.5" width="15" height="6" rx="3" fill="#4285F4" stroke="#fff" stroke-width="3"/><rect x="34.5" y="19.5" width="15" height="6" rx="3" fill="#F7931A" stroke="#fff" stroke-width="3"/></symbol><symbol viewBox="0 0 181 51" fill="none" id="people" xmlns="http://www.w3.org/2000/svg"><path d="M91.5 15.089a6.589 6.589 0 100-13.178 6.589 6.589 0 000 13.178zm-22 2a6.589 6.589 0 100-13.178 6.589 6.589 0 000 13.178zm44 0a6.589 6.589 0 100-13.178 6.589 6.589 0 000 13.178z" fill="#494949" stroke="#fff" stroke-width="2.178"/><path d="M46.697 19.871c3.04 0 5.569-2.37 5.569-5.371 0-3.001-2.529-5.371-5.569-5.371s-5.568 2.37-5.568 5.371c0 3.001 2.529 5.371 5.568 5.371z" fill="#757575" stroke="#fff" stroke-width="1.742"/><path d="M155.211 19.058a3.307 3.307 0 10-.001-6.615 3.307 3.307 0 00.001 6.615zm-129.461 0a3.307 3.307 0 100-6.615 3.307 3.307 0 000 6.615z" fill="#757575" stroke="#fff" stroke-width="1.115"/><path d="M34.5 19.697a4.197 4.197 0 100-8.394 4.197 4.197 0 000 8.394zm113 0a4.197 4.197 0 100-8.394 4.197 4.197 0 000 8.394z" fill="#757575" stroke="#fff" stroke-width="1.394"/><path d="M135.697 19.871c3.04 0 5.569-2.37 5.569-5.371 0-3.001-2.529-5.371-5.569-5.371-3.039 0-5.568 2.37-5.568 5.371 0 3.001 2.529 5.371 5.568 5.371z" fill="#757575" stroke="#fff" stroke-width="1.742"/><path d="M78.803 18.089c3.75 0 6.891-2.896 6.891-6.589 0-3.693-3.141-6.589-6.891-6.589S71.91 7.807 71.91 11.5c0 3.693 3.141 6.589 6.892 6.589zm25 0c3.75 0 6.891-2.896 6.891-6.589 0-3.693-3.141-6.589-6.891-6.589-3.751 0-6.892 2.896-6.892 6.589 0 3.693 3.141 6.589 6.892 6.589zm17 3c3.75 0 6.891-2.896 6.891-6.589 0-3.693-3.141-6.589-6.891-6.589-3.751 0-6.892 2.896-6.892 6.589 0 3.693 3.141 6.589 6.892 6.589z" fill="#494949" stroke="#fff" stroke-width="2.178"/><path d="M18.263 18.946a2.696 2.696 0 100-5.392 2.696 2.696 0 000 5.392zm143.987 0a2.696 2.696 0 100-5.392 2.696 2.696 0 000 5.392z" fill="#D6D6D6" stroke="#fff" stroke-width=".892"/><path d="M60.803 21.089c3.75 0 6.891-2.896 6.891-6.589 0-3.693-3.141-6.589-6.891-6.589S53.91 10.807 53.91 14.5c0 3.693 3.141 6.589 6.892 6.589z" fill="#494949" stroke="#fff" stroke-width="2.178"/><path d="M11.75 18.857a2.107 2.107 0 100-4.214 2.107 2.107 0 000 4.214z" fill="#D6D6D6" stroke="#fff" stroke-width=".714"/><path d="M7.9 19.285a1.785 1.785 0 100-3.57 1.785 1.785 0 000 3.57z" fill="#D6D6D6" stroke="#fff" stroke-width=".571"/><path d="M4.65 18.75a1.5 1.5 0 100-3 1.5 1.5 0 000 3z" fill="#D6D6D6" stroke="#fff" stroke-width=".5"/><path d="M2.768 19.75a1.5 1.5 0 100-3 1.5 1.5 0 000 3zm-1.088.125c-.557 0-1.06.334-1.276.847a1.1 1.1 0 001.014 1.528h2.964a1.1 1.1 0 001.014-1.528 1.384 1.384 0 00-1.275-.847H1.679z" fill="#D6D6D6" stroke="#fff" stroke-width=".5"/><path d="M6.242 20.285a1.785 1.785 0 100-3.57 1.785 1.785 0 000 3.57zm-1.307.18c-.662 0-1.26.397-1.517 1.007a1.306 1.306 0 001.204 1.813h3.556c.935 0 1.567-.952 1.204-1.813a1.647 1.647 0 00-1.517-1.007h-2.93z" fill="#D6D6D6" stroke="#fff" stroke-width=".571"/><path d="M10.316 20.857a2.107 2.107 0 100-4.214 2.107 2.107 0 000 4.214zm-1.525.161c-.782 0-1.489.47-1.792 1.19a1.548 1.548 0 001.426 2.149h4.15A1.548 1.548 0 0014 22.208a1.945 1.945 0 00-1.792-1.19H8.79zm160.459-2.161a2.107 2.107 0 110-4.214 2.107 2.107 0 010 4.214z" fill="#D6D6D6" stroke="#fff" stroke-width=".714"/><path d="M173.1 19.285a1.785 1.785 0 110-3.57 1.785 1.785 0 010 3.57z" fill="#D6D6D6" stroke="#fff" stroke-width=".571"/><path d="M176.35 18.75a1.5 1.5 0 110-3 1.5 1.5 0 010 3z" fill="#D6D6D6" stroke="#fff" stroke-width=".5"/><path d="M178.232 19.75a1.5 1.5 0 110-3 1.5 1.5 0 010 3zm1.089.125c.556 0 1.059.334 1.275.847a1.1 1.1 0 01-1.014 1.528h-2.964a1.1 1.1 0 01-1.014-1.528 1.383 1.383 0 011.275-.847h2.442z" fill="#D6D6D6" stroke="#fff" stroke-width=".5"/><path d="M174.758 20.285a1.786 1.786 0 110-3.571 1.786 1.786 0 010 3.571zm1.307.18c.662 0 1.26.397 1.517 1.007a1.306 1.306 0 01-1.204 1.813h-3.556a1.306 1.306 0 01-1.204-1.813 1.646 1.646 0 011.517-1.007h2.93z" fill="#D6D6D6" stroke="#fff" stroke-width=".571"/><path d="M170.684 20.857a2.107 2.107 0 110-4.215 2.107 2.107 0 010 4.215zm1.525.161c.782 0 1.489.47 1.792 1.19a1.547 1.547 0 01-1.426 2.149h-4.15a1.547 1.547 0 01-1.426-2.149 1.944 1.944 0 011.792-1.19h3.418z" fill="#D6D6D6" stroke="#fff" stroke-width=".714"/><path d="M15.263 20.946a2.696 2.696 0 100-5.392 2.696 2.696 0 000 5.392zm-1.96.233c-1 0-1.904.6-2.293 1.522a1.977 1.977 0 001.823 2.745h5.334a1.977 1.977 0 001.823-2.745 2.488 2.488 0 00-2.293-1.522h-4.394zm151.96-.233a2.696 2.696 0 100-5.392 2.696 2.696 0 000 5.392zm-1.96.233c-1.001 0-1.904.6-2.293 1.522a1.977 1.977 0 001.823 2.745h5.334a1.977 1.977 0 001.823-2.745 2.489 2.489 0 00-2.293-1.522h-4.394z" fill="#D6D6D6" stroke="#fff" stroke-width=".892"/><path d="M159.211 22.058a3.307 3.307 0 10-.001-6.615 3.307 3.307 0 00.001 6.615zm-2.396.259a3.053 3.053 0 00-2.814 1.869 2.43 2.43 0 002.239 3.372h6.52a2.43 2.43 0 002.239-3.372 3.053 3.053 0 00-2.814-1.869h-5.37zM22.21 22.058a3.307 3.307 0 100-6.615 3.307 3.307 0 000 6.615zm-2.395.259A3.053 3.053 0 0017 24.186a2.43 2.43 0 002.239 3.372h6.52A2.43 2.43 0 0028 24.186a3.053 3.053 0 00-2.814-1.869h-5.37z" fill="#757575" stroke="#fff" stroke-width="1.115"/><path d="M30.632 22.697a4.197 4.197 0 100-8.394 4.197 4.197 0 000 8.394zm-3.05.356a3.873 3.873 0 00-3.569 2.37c-.854 2.03.636 4.274 2.838 4.274h8.298c2.202 0 3.692-2.244 2.838-4.274a3.873 3.873 0 00-3.57-2.37h-6.835zm124.05-.356a4.197 4.197 0 10-.001-8.393 4.197 4.197 0 00.001 8.393zm-3.049.356a3.873 3.873 0 00-3.57 2.37c-.854 2.03.636 4.274 2.838 4.274h8.298c2.202 0 3.692-2.244 2.838-4.274a3.873 3.873 0 00-3.57-2.37h-6.834z" fill="#757575" stroke="#fff" stroke-width="1.394"/><path d="M40.5 23.871c3.04 0 5.569-2.37 5.569-5.371 0-3.001-2.53-5.371-5.569-5.371-3.04 0-5.569 2.37-5.569 5.371 0 3.001 2.53 5.371 5.569 5.371zm-3.948.508a4.943 4.943 0 00-4.593 3.116c-1.025 2.578.874 5.376 3.647 5.376h9.788c2.773 0 4.672-2.798 3.647-5.376a4.943 4.943 0 00-4.593-3.116h-7.896zm104.948-.508c3.04 0 5.568-2.37 5.568-5.371 0-3.001-2.528-5.371-5.568-5.371-3.04 0-5.568 2.37-5.568 5.371 0 3.001 2.528 5.371 5.568 5.371zm-3.948.508a4.942 4.942 0 00-4.593 3.116c-1.025 2.578.874 5.376 3.647 5.376h9.788c2.773 0 4.672-2.798 3.647-5.376a4.942 4.942 0 00-4.593-3.116h-7.896z" fill="#757575" stroke="#fff" stroke-width="1.742"/><path d="M53.5 25.089c3.75 0 6.892-2.896 6.892-6.589 0-3.693-3.142-6.589-6.892-6.589-3.75 0-6.892 2.896-6.892 6.589 0 3.693 3.142 6.589 6.892 6.589zm-4.924.572a6.068 6.068 0 00-5.63 3.805c-1.275 3.17 1.059 6.623 4.475 6.623h12.158c3.416 0 5.75-3.453 4.476-6.622a6.068 6.068 0 00-5.63-3.806h-9.85zm79.924-.572c3.75 0 6.892-2.896 6.892-6.589 0-3.693-3.142-6.589-6.892-6.589-3.75 0-6.892 2.896-6.892 6.589 0 3.693 3.142 6.589 6.892 6.589zm-4.924.572a6.069 6.069 0 00-5.631 3.805c-1.274 3.17 1.06 6.623 4.476 6.623h12.158c3.416 0 5.75-3.453 4.476-6.622a6.069 6.069 0 00-5.631-3.806h-9.848z" fill="#494949" stroke="#fff" stroke-width="2.178"/><path d="M70 28.361c4.686 0 8.545-3.71 8.545-8.361 0-4.65-3.86-8.361-8.545-8.361-4.686 0-8.545 3.71-8.545 8.361 0 4.65 3.86 8.361 8.545 8.361zm-5.942.778a7.69 7.69 0 00-7.162 4.89c-1.566 4.005 1.387 8.332 5.688 8.332h14.832c4.3 0 7.254-4.326 5.688-8.332a7.69 7.69 0 00-7.162-4.89H64.058zM112 28.361c4.686 0 8.545-3.71 8.545-8.361 0-4.65-3.859-8.361-8.545-8.361s-8.545 3.71-8.545 8.361c0 4.65 3.859 8.361 8.545 8.361zm-5.942.778a7.691 7.691 0 00-7.162 4.89c-1.566 4.005 1.387 8.332 5.688 8.332h14.832c4.301 0 7.254-4.326 5.688-8.332a7.69 7.69 0 00-7.162-4.89h-11.884z" fill="#494949" stroke="#fff" stroke-width="2.722"/><path d="M91.5 30.75c5.98 0 10.868-4.791 10.868-10.75S97.481 9.25 91.5 9.25c-5.98 0-10.868 4.791-10.868 10.75S85.519 30.75 91.5 30.75z" fill="#F7931A" stroke="#fff" stroke-width="3.5"/><path d="M84.052 31.75a9.883 9.883 0 00-9.22 6.324c-1.984 5.143 1.81 10.676 7.323 10.676h18.69c5.512 0 9.308-5.533 7.323-10.676a9.883 9.883 0 00-9.22-6.324H84.052z" fill="#4285F4" stroke="#fff" stroke-width="3.5"/></symbol><symbol viewBox="0 0 61 59" fill="none" id="powerful" xmlns="http://www.w3.org/2000/svg"><path d="M8.371 47.5c5.407 7.039 13.763 11.25 22.812 11.25 8.992 0 17.301-4.158 22.714-11.123a2.5 2.5 0 00-3.948-3.068 23.701 23.701 0 01-18.766 9.191 23.702 23.702 0 01-18.847-9.296A2.5 2.5 0 008.371 47.5z" fill="#000"/><path fill-rule="evenodd" clip-rule="evenodd" d="M30.183 7.5a3.75 3.75 0 100-7.5 3.75 3.75 0 000 7.5z" fill="#F7931A"/><path fill-rule="evenodd" clip-rule="evenodd" d="M18.933 10.514a3.75 3.75 0 10-3.75-6.495 3.75 3.75 0 003.75 6.495z" fill="#4285F4"/><path fill-rule="evenodd" clip-rule="evenodd" d="M10.697 18.75A3.75 3.75 0 104.202 15a3.75 3.75 0 006.495 3.75z" fill="#F7931A"/><path fill-rule="evenodd" clip-rule="evenodd" d="M7.683 30a3.75 3.75 0 10-7.5 0 3.75 3.75 0 007.5 0zm37.5-25.98a3.75 3.75 0 10-3.75 6.494 3.75 3.75 0 003.75-6.495z" fill="#4285F4"/><path fill-rule="evenodd" clip-rule="evenodd" d="M27.103 26.866a4.5 4.5 0 106.364 6.364m9.546-15.91l-9.546 15.91-6.364-6.364 15.91-9.546z" fill="#000"/><path fill-rule="evenodd" clip-rule="evenodd" d="M30.183 32.25a2.25 2.25 0 100-4.5 2.25 2.25 0 000 4.5z" fill="#fff"/></symbol><symbol viewBox="0 0 46 48" fill="none" id="privacy" xmlns="http://www.w3.org/2000/svg"><path fill-rule="evenodd" clip-rule="evenodd" d="M9.031 44.15l-1.975-2.04 16.087-15.53.913.49a12.836 12.836 0 0015.022-2.112c5.1-4.938 5.231-13.105.294-18.206-4.939-5.101-13.106-5.235-18.207-.296l-1.975-2.04c6.226-6.027 16.195-5.864 22.221.36 6.03 6.227 5.866 16.195-.358 22.223a15.666 15.666 0 01-17.396 3.037L9.031 44.15z" fill="#F7931A"/><path fill-rule="evenodd" clip-rule="evenodd" d="M29.953 18.119a2.25 2.25 0 110-4.498 2.25 2.25 0 010 4.498zm7.988-9.983c-4.273-4.411-11.312-4.525-15.723-.254-3.09 2.992-4.064 7.34-2.904 11.194l-5.75 5.568-3.457-.986.875 3.484-2.305 2.232-3.455-.986.873 3.485-2.305 2.232-3.455-.987.873 3.486-1.207 1.17 2.198 6.979 20.849-20.184c4.306 3.424 10.58 3.217 14.639-.712 4.41-4.27 4.524-11.309.255-15.721z" fill="#000"/><path fill-rule="evenodd" clip-rule="evenodd" d="M5.224 47.864L3.26 45.836l2.886-2.794L8.11 45.07l-2.886 2.794z" fill="#4285F4"/></symbol><symbol viewBox="0 0 41 42" fill="none" id="statistics" xmlns="http://www.w3.org/2000/svg"><rect y="20" width="7" height="22" rx="3.5" fill="#000"/><rect x="17" width="7" height="42" rx="3.5" fill="#F7931A"/><rect x="34" y="12" width="7" height="30" rx="3.5" fill="#fff"/></symbol><symbol viewBox="0 0 20 17" id="telegram" xmlns="http://www.w3.org/2000/svg"><path fill-rule="evenodd" clip-rule="evenodd" d="M16.908 15.931l3.018-14.347c.148-.594.074-1.04-.22-1.338-.295-.297-.59-.297-1.031-.148L.932 7.01c-.368.149-.663.297-.81.52-.147.223-.147.372-.074.52.074.15.295.298.663.372l4.565 1.413 10.527-6.69c.295-.224.516-.224.663-.15.074.075.074.15-.074.298l-8.54 7.88-.368 4.758c.295 0 .59-.15.957-.447l2.209-2.155 4.565 3.42c.957.52 1.472.222 1.693-.819z"/></symbol><symbol viewBox="0 0 20 12" id="vk" xmlns="http://www.w3.org/2000/svg"><path fill-rule="evenodd" clip-rule="evenodd" d="M9.785 11.95h1.196s.36-.042.546-.251c.17-.192.164-.551.164-.551s-.024-1.688.72-1.937c.734-.245 1.677 1.63 2.676 2.351.755.546 1.33.427 1.33.427l2.67-.039s1.397-.09.735-1.246c-.055-.095-.386-.855-1.986-2.417-1.675-1.635-1.45-1.37.567-4.198 1.229-1.722 1.72-2.774 1.566-3.224-.146-.43-1.05-.315-1.05-.315l-3.008.019s-.222-.032-.388.072c-.161.101-.265.34-.265.34s-.476 1.332-1.11 2.466c-1.34 2.39-1.875 2.517-2.094 2.369-.51-.347-.382-1.39-.382-2.132 0-2.318.334-3.284-.65-3.535-.328-.083-.568-.138-1.404-.146C8.545-.01 7.636.006 7.122.271c-.342.176-.606.569-.445.591.199.028.649.128.887.47.309.44.298 1.43.298 1.43s.177 2.729-.414 3.068c-.405.232-.961-.242-2.155-2.413a20.703 20.703 0 01-1.074-2.339s-.088-.23-.248-.353C3.78.576 3.51.53 3.51.53L.652.55S.223.562.065.758c-.14.175-.01.535-.01.535s2.236 5.505 4.77 8.28c2.323 2.543 4.96 2.377 4.96 2.377z"/></symbol><symbol viewBox="0 0 20 14" id="youtube" xmlns="http://www.w3.org/2000/svg"><path fill-rule="evenodd" clip-rule="evenodd" d="M9.985 0c4.717 0 6.956.225 6.956.225s1.716.06 2.387 1.336c0 0 .67.925.67 5.439 0 0 .04 2.794-.277 4.28-.318 1.485-1.02 1.92-1.02 1.92s-.45.433-1.443.551c-.993.119-4.213.249-7.273.249 0 0-5.603-.003-7.49-.313C.61 13.377.344 11.628.344 11.628s-.772-4.429 0-9.251c0 0 .224-1.926 2.479-2.152 0 0 2.445-.225 7.163-.225zm3.422 6.89L7.912 9.626v-5.47l5.495 2.735z"/></symbol></svg>